<svg width="119" height="66" viewBox="0 0 119 66" fill="none" xmlns="http://www.w3.org/2000/svg">
<path d="M69.4044 44.833C68.8196 44.833 68.307 44.7077 67.8666 44.4571C67.4261 44.2065 67.0844 43.8534 66.8414 43.3977C66.606 42.9345 66.4883 42.4067 66.4883 41.8144C66.4883 41.222 66.606 40.698 66.8414 40.2424C67.0844 39.7792 67.4261 39.4223 67.8666 39.1717C68.307 38.9211 68.8196 38.7957 69.4044 38.7957C69.9815 38.7957 70.4903 38.9211 70.9308 39.1717C71.3712 39.4223 71.713 39.7792 71.956 40.2424C72.199 40.698 72.3205 41.222 72.3205 41.8144C72.3205 42.4067 72.199 42.9345 71.956 43.3977C71.713 43.8534 71.3712 44.2065 70.9308 44.4571C70.4903 44.7077 69.9815 44.833 69.4044 44.833ZM69.4044 43.8875C69.7157 43.8875 70.0119 43.8154 70.2929 43.6711C70.5815 43.5268 70.8169 43.299 70.9991 42.9876C71.189 42.6763 71.2839 42.2814 71.2839 41.803C71.2839 41.3321 71.189 40.9411 70.9991 40.6297C70.8169 40.3183 70.5815 40.0943 70.2929 39.9576C70.0119 39.8133 69.7157 39.7412 69.4044 39.7412C69.0854 39.7412 68.7817 39.8133 68.4931 39.9576C68.2121 40.0943 67.9805 40.3183 67.7982 40.6297C67.616 40.9411 67.5249 41.3321 67.5249 41.803C67.5249 42.2814 67.616 42.6763 67.7982 42.9876C67.9805 43.299 68.2121 43.5268 68.4931 43.6711C68.7817 43.8154 69.0854 43.8875 69.4044 43.8875Z" fill="white"/>
<path d="M74.2843 44.776C74.14 44.776 74.0185 44.7267 73.9198 44.628C73.821 44.5292 73.7717 44.4077 73.7717 44.2634V39.3767C73.7717 39.2324 73.821 39.1109 73.9198 39.0122C74.0185 38.9059 74.14 38.8527 74.2843 38.8527C74.4286 38.8527 74.5501 38.9059 74.6488 39.0122C74.7551 39.1109 74.8083 39.2324 74.8083 39.3767V39.8665C75.3398 39.1527 75.936 38.7957 76.5967 38.7957H76.6536C76.7979 38.7957 76.9156 38.8451 77.0067 38.9438C77.1055 39.0426 77.1548 39.1641 77.1548 39.3083C77.1548 39.4526 77.1055 39.5703 77.0067 39.6615C76.908 39.7526 76.7827 39.7982 76.6308 39.7982H76.5739C76.2094 39.7982 75.8752 39.8893 75.5715 40.0715C75.2677 40.2462 75.0133 40.4892 74.8083 40.8006V44.2634C74.8083 44.4077 74.7551 44.5292 74.6488 44.628C74.5501 44.7267 74.4286 44.776 74.2843 44.776Z" fill="white"/>
<path d="M79.6131 44.833C79.279 44.833 78.9677 44.7646 78.6791 44.628C78.3981 44.4913 78.1741 44.2938 78.007 44.0356C77.8399 43.7698 77.7564 43.4661 77.7564 43.1243C77.7564 42.5624 77.9766 42.1143 78.4171 41.7802C78.8651 41.4461 79.5182 41.279 80.3763 41.279H81.7547V41.1879C81.7547 40.6867 81.6294 40.3259 81.3787 40.1057C81.1357 39.8855 80.7522 39.7754 80.2283 39.7754C79.9397 39.7754 79.6815 39.7982 79.4537 39.8437C79.2334 39.8893 78.9866 39.9576 78.7132 40.0488C78.6525 40.0639 78.6031 40.0715 78.5652 40.0715C78.4513 40.0715 78.3525 40.0298 78.269 39.9462C78.1855 39.8627 78.1437 39.7602 78.1437 39.6387C78.1437 39.4336 78.2424 39.2894 78.4399 39.2058C79.0854 38.9324 79.7422 38.7957 80.4105 38.7957C80.9345 38.7957 81.375 38.9021 81.7319 39.1147C82.0964 39.3273 82.3622 39.6045 82.5292 39.9462C82.7039 40.2804 82.7912 40.6449 82.7912 41.0398V44.2634C82.7912 44.4077 82.7381 44.5292 82.6318 44.628C82.533 44.7267 82.4115 44.776 82.2672 44.776C82.123 44.776 82.0015 44.7267 81.9027 44.628C81.804 44.5292 81.7547 44.4077 81.7547 44.2634V43.9673C81.1927 44.5444 80.4789 44.833 79.6131 44.833ZM80.0004 43.9217C80.3346 43.9217 80.6573 43.842 80.9687 43.6825C81.28 43.5154 81.542 43.3104 81.7547 43.0674V42.1105H80.513C79.3663 42.1105 78.793 42.4105 78.793 43.0104C78.793 43.2838 78.8841 43.504 79.0664 43.6711C79.2562 43.8382 79.5676 43.9217 80.0004 43.9217Z" fill="white"/>
<path d="M85.0412 44.776C84.8969 44.776 84.7754 44.7267 84.6767 44.628C84.578 44.5292 84.5286 44.4077 84.5286 44.2634V36.8707C84.5286 36.7264 84.578 36.6049 84.6767 36.5062C84.7754 36.3998 84.8969 36.3467 85.0412 36.3467C85.1931 36.3467 85.3184 36.396 85.4171 36.4948C85.5159 36.5935 85.5652 36.7188 85.5652 36.8707V44.2634C85.5652 44.4077 85.5121 44.5292 85.4057 44.628C85.307 44.7267 85.1855 44.776 85.0412 44.776Z" fill="white"/>
<path d="M67.354 34.0971C67.2097 34.0971 67.0882 34.0477 66.9895 33.949C66.8908 33.8503 66.8414 33.7288 66.8414 33.5845V28.6977C66.8414 28.5535 66.8908 28.4319 66.9895 28.3332C67.0882 28.2269 67.2097 28.1737 67.354 28.1737C67.4983 28.1737 67.6198 28.2269 67.7185 28.3332C67.8248 28.4319 67.878 28.5535 67.878 28.6977V29.1876C68.4096 28.4737 69.0057 28.1168 69.6664 28.1168H69.7233C69.8676 28.1168 69.9853 28.1662 70.0765 28.2649C70.1752 28.3636 70.2245 28.4851 70.2245 28.6294C70.2245 28.7737 70.1752 28.8914 70.0765 28.9825C69.9777 29.0736 69.8524 29.1192 69.7005 29.1192H69.6436C69.2791 29.1192 68.9449 29.2103 68.6412 29.3926C68.3374 29.5673 68.083 29.8103 67.878 30.1216V33.5845C67.878 33.7288 67.8248 33.8503 67.7185 33.949C67.6198 34.0477 67.4983 34.0971 67.354 34.0971Z" fill="white"/>
<path d="M72.6829 34.154C72.3487 34.154 72.0374 34.0857 71.7488 33.949C71.4678 33.8123 71.2438 33.6149 71.0767 33.3567C70.9097 33.0909 70.8261 32.7871 70.8261 32.4454C70.8261 31.8834 71.0463 31.4354 71.4868 31.1012C71.9348 30.7671 72.5879 30.6 73.4461 30.6H74.8244V30.5089C74.8244 30.0077 74.6991 29.647 74.4485 29.4268C74.2055 29.2065 73.822 29.0964 73.298 29.0964C73.0094 29.0964 72.7512 29.1192 72.5234 29.1648C72.3032 29.2103 72.0564 29.2787 71.783 29.3698C71.7222 29.385 71.6729 29.3926 71.6349 29.3926C71.521 29.3926 71.4223 29.3508 71.3387 29.2673C71.2552 29.1838 71.2134 29.0812 71.2134 28.9597C71.2134 28.7547 71.3121 28.6104 71.5096 28.5269C72.1551 28.2535 72.812 28.1168 73.4802 28.1168C74.0042 28.1168 74.4447 28.2231 74.8016 28.4357C75.1661 28.6484 75.4319 28.9256 75.599 29.2673C75.7736 29.6014 75.861 29.9659 75.861 30.3608V33.5845C75.861 33.7288 75.8078 33.8503 75.7015 33.949C75.6028 34.0477 75.4813 34.0971 75.337 34.0971C75.1927 34.0971 75.0712 34.0477 74.9725 33.949C74.8737 33.8503 74.8244 33.7288 74.8244 33.5845V33.2883C74.2624 33.8655 73.5486 34.154 72.6829 34.154ZM73.0702 33.2428C73.4043 33.2428 73.727 33.163 74.0384 33.0035C74.3497 32.8365 74.6117 32.6314 74.8244 32.3884V31.4316H73.5827C72.4361 31.4316 71.8627 31.7315 71.8627 32.3315C71.8627 32.6049 71.9538 32.8251 72.1361 32.9922C72.3259 33.1592 72.6373 33.2428 73.0702 33.2428Z" fill="white"/>
<path d="M80.0019 34.154C79.531 34.154 79.083 34.0363 78.6577 33.8009C78.24 33.5579 77.8983 33.2086 77.6325 32.7529C77.3743 32.2897 77.2452 31.7505 77.2452 31.1354C77.2452 30.5203 77.3743 29.9849 77.6325 29.5293C77.8983 29.066 78.24 28.7167 78.6577 28.4813C79.083 28.2383 79.531 28.1168 80.0019 28.1168C80.7461 28.1168 81.3954 28.4054 81.9497 28.9825V26.1917C81.9497 26.0398 81.9991 25.9145 82.0978 25.8158C82.2041 25.7171 82.3294 25.6677 82.4737 25.6677C82.618 25.6677 82.7395 25.7209 82.8382 25.8272C82.9369 25.9259 82.9863 26.0474 82.9863 26.1917V33.5845C82.9863 33.7288 82.9369 33.8503 82.8382 33.949C82.7395 34.0477 82.618 34.0971 82.4737 34.0971C82.3294 34.0971 82.2041 34.0477 82.0978 33.949C81.9991 33.8503 81.9497 33.7288 81.9497 33.5845V33.2883C81.3954 33.8655 80.7461 34.154 80.0019 34.154ZM80.1499 33.1858C80.4993 33.1858 80.8258 33.1099 81.1296 32.958C81.4409 32.7985 81.7143 32.5897 81.9497 32.3315V29.9394C81.7143 29.6812 81.4409 29.4761 81.1296 29.3242C80.8258 29.1648 80.4993 29.085 80.1499 29.085C79.588 29.085 79.1361 29.2635 78.7944 29.6204C78.4527 29.9773 78.2818 30.4823 78.2818 31.1354C78.2818 31.7885 78.4527 32.2935 78.7944 32.6504C79.1361 33.0073 79.588 33.1858 80.1499 33.1858Z" fill="white"/>
<path d="M85.2743 27.046C85.1148 27.046 84.9781 26.9891 84.8642 26.8752C84.7503 26.7613 84.6934 26.6246 84.6934 26.4651V26.4195C84.6934 26.2601 84.7503 26.1234 84.8642 26.0095C84.9781 25.8955 85.1148 25.8386 85.2743 25.8386H85.3426C85.5021 25.8386 85.6388 25.8955 85.7527 26.0095C85.8666 26.1234 85.9236 26.2601 85.9236 26.4195V26.4651C85.9236 26.6246 85.8666 26.7613 85.7527 26.8752C85.6388 26.9891 85.5021 27.046 85.3426 27.046H85.2743ZM85.2971 34.0971C85.1528 34.0971 85.0313 34.0477 84.9326 33.949C84.8338 33.8503 84.7845 33.7288 84.7845 33.5845V28.6977C84.7845 28.5535 84.8338 28.4319 84.9326 28.3332C85.0313 28.2269 85.1528 28.1737 85.2971 28.1737C85.449 28.1737 85.5743 28.2231 85.673 28.3218C85.7717 28.4206 85.8211 28.5459 85.8211 28.6977V33.5845C85.8211 33.7288 85.7679 33.8503 85.6616 33.949C85.5629 34.0477 85.4414 34.0971 85.2971 34.0971Z" fill="white"/>
<path d="M90.1841 34.154C89.5994 34.154 89.0868 34.0287 88.6463 33.7781C88.2059 33.5275 87.8641 33.1744 87.6211 32.7188C87.3857 32.2555 87.268 31.7277 87.268 31.1354C87.268 30.5431 87.3857 30.0191 87.6211 29.5635C87.8641 29.1002 88.2059 28.7433 88.6463 28.4927C89.0868 28.2421 89.5994 28.1168 90.1841 28.1168C90.7612 28.1168 91.27 28.2421 91.7105 28.4927C92.1509 28.7433 92.4927 29.1002 92.7357 29.5635C92.9787 30.0191 93.1002 30.5431 93.1002 31.1354C93.1002 31.7277 92.9787 32.2555 92.7357 32.7188C92.4927 33.1744 92.1509 33.5275 91.7105 33.7781C91.27 34.0287 90.7612 34.154 90.1841 34.154ZM90.1841 33.2086C90.4955 33.2086 90.7916 33.1364 91.0726 32.9922C91.3612 32.8479 91.5966 32.62 91.7788 32.3087C91.9687 31.9973 92.0636 31.6024 92.0636 31.124C92.0636 30.6532 91.9687 30.2621 91.7788 29.9507C91.5966 29.6394 91.3612 29.4154 91.0726 29.2787C90.7916 29.1344 90.4955 29.0622 90.1841 29.0622C89.8651 29.0622 89.5614 29.1344 89.2728 29.2787C88.9918 29.4154 88.7602 29.6394 88.578 29.9507C88.3957 30.2621 88.3046 30.6532 88.3046 31.124C88.3046 31.6024 88.3957 31.9973 88.578 32.3087C88.7602 32.62 88.9918 32.8479 89.2728 32.9922C89.5614 33.1364 89.8651 33.2086 90.1841 33.2086Z" fill="white"/>
<path d="M95.064 34.0971C94.9197 34.0971 94.7982 34.0477 94.6995 33.949C94.6008 33.8503 94.5514 33.7288 94.5514 33.5845V26.1917C94.5514 26.0474 94.6008 25.9259 94.6995 25.8272C94.7982 25.7209 94.9197 25.6677 95.064 25.6677C95.2159 25.6677 95.3412 25.7171 95.4399 25.8158C95.5386 25.9145 95.588 26.0398 95.588 26.1917V33.5845C95.588 33.7288 95.5348 33.8503 95.4285 33.949C95.3298 34.0477 95.2083 34.0971 95.064 34.0971Z" fill="white"/>
<path d="M99.951 34.154C99.3663 34.154 98.8537 34.0287 98.4132 33.7781C97.9728 33.5275 97.631 33.1744 97.388 32.7188C97.1526 32.2555 97.0349 31.7277 97.0349 31.1354C97.0349 30.5431 97.1526 30.0191 97.388 29.5635C97.631 29.1002 97.9728 28.7433 98.4132 28.4927C98.8537 28.2421 99.3663 28.1168 99.951 28.1168C100.528 28.1168 101.037 28.2421 101.477 28.4927C101.918 28.7433 102.26 29.1002 102.503 29.5635C102.746 30.0191 102.867 30.5431 102.867 31.1354C102.867 31.7277 102.746 32.2555 102.503 32.7188C102.26 33.1744 101.918 33.5275 101.477 33.7781C101.037 34.0287 100.528 34.154 99.951 34.154ZM99.951 33.2086C100.262 33.2086 100.559 33.1364 100.84 32.9922C101.128 32.8479 101.363 32.62 101.546 32.3087C101.736 31.9973 101.831 31.6024 101.831 31.124C101.831 30.6532 101.736 30.2621 101.546 29.9507C101.363 29.6394 101.128 29.4154 100.84 29.2787C100.559 29.1344 100.262 29.0622 99.951 29.0622C99.6321 29.0622 99.3283 29.1344 99.0397 29.2787C98.7587 29.4154 98.5271 29.6394 98.3449 29.9507C98.1626 30.2621 98.0715 30.6532 98.0715 31.124C98.0715 31.6024 98.1626 31.9973 98.3449 32.3087C98.5271 32.62 98.7587 32.8479 99.0397 32.9922C99.3283 33.1364 99.6321 33.2086 99.951 33.2086Z" fill="white"/>
<path d="M107.029 36.774C106.589 36.774 106.145 36.717 105.697 36.6031C105.249 36.4892 104.88 36.3487 104.592 36.1816C104.455 36.0981 104.387 35.9652 104.387 35.783C104.387 35.6614 104.428 35.5513 104.512 35.4526C104.603 35.3615 104.713 35.3159 104.842 35.3159C104.903 35.3159 104.971 35.3311 105.047 35.3615C105.624 35.6501 106.251 35.7943 106.927 35.7943C108.089 35.7943 108.67 35.1754 108.67 33.9376V33.1744C108.131 33.7516 107.481 34.0401 106.722 34.0401C106.274 34.0401 105.837 33.93 105.412 33.7098C104.994 33.482 104.649 33.1478 104.375 32.7074C104.102 32.2593 103.965 31.7164 103.965 31.0785C103.965 30.4406 104.102 29.9014 104.375 29.4609C104.649 29.0129 104.994 28.6788 105.412 28.4585C105.837 28.2307 106.274 28.1168 106.722 28.1168C107.481 28.1168 108.131 28.4054 108.67 28.9825V28.6977C108.67 28.5535 108.719 28.4319 108.818 28.3332C108.916 28.2269 109.038 28.1737 109.182 28.1737C109.327 28.1737 109.448 28.2269 109.547 28.3332C109.653 28.4319 109.706 28.5535 109.706 28.6977V33.7895C109.706 34.7464 109.475 35.483 109.011 35.9994C108.548 36.5158 107.887 36.774 107.029 36.774ZM106.938 33.0947C107.295 33.0947 107.61 33.0187 107.884 32.8669C108.157 32.715 108.419 32.5099 108.67 32.2517V29.9052C108.419 29.647 108.157 29.442 107.884 29.2901C107.61 29.1382 107.295 29.0622 106.938 29.0622C106.369 29.0622 105.902 29.2369 105.537 29.5862C105.18 29.928 105.002 30.4254 105.002 31.0785C105.002 31.7315 105.18 32.2327 105.537 32.5821C105.902 32.9238 106.369 33.0947 106.938 33.0947Z" fill="white"/>
<path d="M111.994 27.046C111.835 27.046 111.698 26.9891 111.584 26.8752C111.47 26.7613 111.413 26.6246 111.413 26.4651V26.4195C111.413 26.2601 111.47 26.1234 111.584 26.0095C111.698 25.8955 111.835 25.8386 111.994 25.8386H112.063C112.222 25.8386 112.359 25.8955 112.473 26.0095C112.587 26.1234 112.644 26.2601 112.644 26.4195V26.4651C112.644 26.6246 112.587 26.7613 112.473 26.8752C112.359 26.9891 112.222 27.046 112.063 27.046H111.994ZM112.017 34.0971C111.873 34.0971 111.751 34.0477 111.653 33.949C111.554 33.8503 111.504 33.7288 111.504 33.5845V28.6977C111.504 28.5535 111.554 28.4319 111.653 28.3332C111.751 28.2269 111.873 28.1737 112.017 28.1737C112.169 28.1737 112.294 28.2231 112.393 28.3218C112.492 28.4206 112.541 28.5459 112.541 28.6977V33.5845C112.541 33.7288 112.488 33.8503 112.382 33.949C112.283 34.0477 112.161 34.0971 112.017 34.0971Z" fill="white"/>
<path d="M115.822 34.154C115.488 34.154 115.176 34.0857 114.888 33.949C114.607 33.8123 114.383 33.6149 114.216 33.3567C114.049 33.0909 113.965 32.7871 113.965 32.4454C113.965 31.8834 114.185 31.4354 114.626 31.1012C115.074 30.7671 115.727 30.6 116.585 30.6H117.963V30.5089C117.963 30.0077 117.838 29.647 117.588 29.4268C117.345 29.2065 116.961 29.0964 116.437 29.0964C116.148 29.0964 115.89 29.1192 115.662 29.1648C115.442 29.2103 115.195 29.2787 114.922 29.3698C114.861 29.385 114.812 29.3926 114.774 29.3926C114.66 29.3926 114.561 29.3508 114.478 29.2673C114.394 29.1838 114.352 29.0812 114.352 28.9597C114.352 28.7547 114.451 28.6104 114.649 28.5269C115.294 28.2535 115.951 28.1168 116.619 28.1168C117.143 28.1168 117.584 28.2231 117.941 28.4357C118.305 28.6484 118.571 28.9256 118.738 29.2673C118.913 29.6014 119 29.9659 119 30.3608V33.5845C119 33.7288 118.947 33.8503 118.841 33.949C118.742 34.0477 118.62 34.0971 118.476 34.0971C118.332 34.0971 118.21 34.0477 118.111 33.949C118.013 33.8503 117.963 33.7288 117.963 33.5845V33.2883C117.401 33.8655 116.688 34.154 115.822 34.154ZM116.209 33.2428C116.543 33.2428 116.866 33.163 117.177 33.0035C117.489 32.8365 117.751 32.6314 117.963 32.3884V31.4316H116.722C115.575 31.4316 115.002 31.7315 115.002 32.3315C115.002 32.6049 115.093 32.8251 115.275 32.9922C115.465 33.1592 115.776 33.2428 116.209 33.2428Z" fill="white"/>
<path d="M24.083 43.8931C23.6862 43.8931 23.3526 43.7578 23.082 43.4873C22.8115 43.2167 22.6762 42.8831 22.6762 42.4863V24.171C22.6762 23.7561 22.8115 23.4225 23.082 23.17C23.3526 22.8994 23.6862 22.7642 24.083 22.7642H28.9797C31.0178 22.7642 32.8304 23.2151 34.4175 24.1168C36.0047 25.0186 37.2401 26.2721 38.1239 27.8773C39.0076 29.4645 39.4495 31.2771 39.4495 33.3151C39.4495 35.3531 39.0076 37.1748 38.1239 38.7799C37.2401 40.3851 36.0047 41.6386 34.4175 42.5404C32.8304 43.4422 31.0178 43.8931 28.9797 43.8931H24.083ZM28.9797 41.4041C30.4767 41.4041 31.8114 41.0615 32.9837 40.3761C34.1741 39.6907 35.0939 38.7348 35.7432 37.5084C36.4105 36.2639 36.7442 34.8662 36.7442 33.3151C36.7442 31.764 36.4105 30.3753 35.7432 29.1488C35.0939 27.9224 34.1741 26.9665 32.9837 26.2811C31.8114 25.5958 30.4767 25.2531 28.9797 25.2531H25.4898V41.4041H28.9797Z" fill="white"/>
<path d="M44.1624 43.8931C43.7656 43.8931 43.4319 43.7668 43.1614 43.5143C42.9089 43.2438 42.7826 42.9101 42.7826 42.5133V30.4745C42.7826 30.0596 42.9089 29.726 43.1614 29.4735C43.4319 29.221 43.7656 29.0947 44.1624 29.0947C44.5772 29.0947 44.9108 29.221 45.1633 29.4735C45.4158 29.726 45.5421 30.0596 45.5421 30.4745V42.5133C45.5421 42.9101 45.4158 43.2438 45.1633 43.5143C44.9108 43.7668 44.5772 43.8931 44.1624 43.8931ZM44.1624 26.6869C43.6754 26.6869 43.2515 26.5156 42.8908 26.1729C42.5481 25.8122 42.3768 25.3884 42.3768 24.9014C42.3768 24.4144 42.5481 23.9996 42.8908 23.6569C43.2515 23.2962 43.6754 23.1159 44.1624 23.1159C44.6493 23.1159 45.0641 23.2962 45.4068 23.6569C45.7675 23.9996 45.9479 24.4144 45.9479 24.9014C45.9479 25.3884 45.7675 25.8122 45.4068 26.1729C45.0641 26.5156 44.6493 26.6869 44.1624 26.6869Z" fill="white"/>
<path d="M60.8209 41.8099C61.0734 42.0805 61.1996 42.3961 61.1996 42.7568C61.1996 43.0815 61.0824 43.352 60.8479 43.5684C60.6315 43.7849 60.3429 43.8931 59.9822 43.8931C59.5493 43.8931 59.2247 43.7488 59.0083 43.4602L54.7067 38.32L50.6216 43.4602C50.3511 43.7488 50.0265 43.8931 49.6477 43.8931C49.287 43.8931 48.9984 43.7849 48.782 43.5684C48.5836 43.352 48.4844 43.0815 48.4844 42.7568C48.4844 42.3961 48.6106 42.0625 48.8631 41.7558L53.0565 36.5074L48.5926 31.232C48.3221 30.9073 48.1868 30.5646 48.1868 30.2039C48.1868 29.8973 48.286 29.6358 48.4844 29.4194C48.7008 29.2029 48.9984 29.0947 49.3772 29.0947C49.81 29.0947 50.1527 29.248 50.4052 29.5546L54.842 34.8572L58.8189 29.5546C59.0534 29.248 59.387 29.0947 59.8199 29.0947C60.1806 29.0947 60.4602 29.212 60.6585 29.4464C60.875 29.6628 60.9832 29.9334 60.9832 30.258C60.9832 30.6548 60.8569 31.0155 60.6044 31.3402L56.5193 36.6698L60.8209 41.8099Z" fill="white"/>
<path fill-rule="evenodd" clip-rule="evenodd" d="M27.6612 2.47646C10.3688 5.86142 -0.906804 22.6173 2.47659 39.9017C4.63143 50.9099 12.212 59.4784 21.9047 63.3753C22.3854 63.5686 22.6183 64.1148 22.4248 64.5954C22.2314 65.076 21.6849 65.3088 21.2041 65.1156C10.9469 60.9917 2.91693 51.9198 0.634968 40.2622C-2.94743 21.9612 8.99134 4.21975 27.3008 0.635689C32.7578 -0.432504 38.1676 -0.122421 43.167 1.325C43.6647 1.4691 43.9513 1.98923 43.807 2.48676C43.6628 2.98428 43.1424 3.27079 42.6447 3.12669C37.9254 1.76039 32.8182 1.46697 27.6612 2.47646Z" fill="white"/>
<path fill-rule="evenodd" clip-rule="evenodd" d="M22.7703 60.9045C22.9492 60.4142 23.489 60.1642 23.9761 60.3459C28.3311 61.9713 33.0132 62.4909 37.608 61.859C38.1219 61.7884 38.5967 62.1511 38.6684 62.6692C38.7402 63.1872 38.3817 63.6645 37.8678 63.7352C32.9671 64.4092 27.9733 63.8549 23.3284 62.1214C22.8413 61.9396 22.5914 61.3948 22.7703 60.9045Z" fill="white"/>
<path fill-rule="evenodd" clip-rule="evenodd" d="M28.3369 5.93719C12.9563 8.94793 2.92818 23.8563 5.93868 39.2357C7.07255 45.0282 9.89272 50.0591 13.79 53.9217C14.1583 54.2867 14.1609 54.8812 13.7959 55.2495C13.4308 55.6178 12.8363 55.6205 12.4679 55.2554C8.31191 51.1364 5.30406 45.7696 4.09567 39.5965C0.885943 23.1993 11.5777 7.30431 27.9762 4.09433C28.4851 3.9947 28.9784 4.32648 29.0781 4.83538C29.1777 5.34427 28.8459 5.83757 28.3369 5.93719Z" fill="white"/>
<path fill-rule="evenodd" clip-rule="evenodd" d="M9.90601 23.8651C10.3925 24.0458 10.6409 24.5871 10.4608 25.0742C8.92492 29.2282 8.47478 33.8443 9.38871 38.5132C12.0357 52.0358 25.126 60.8558 38.6264 58.2131C42.9061 57.3753 46.7106 55.4877 49.8288 52.8697C50.2263 52.536 50.8187 52.5884 51.1521 52.9866C51.4855 53.3848 51.4336 53.9781 51.0362 54.3118C47.6809 57.1288 43.587 59.1593 38.9879 60.0596C24.4693 62.9016 10.3919 53.4164 7.54523 38.8741C6.56297 33.8561 7.04669 28.8891 8.69905 24.42C8.87915 23.9329 9.41953 23.6845 9.90601 23.8651Z" fill="white"/>
<path fill-rule="evenodd" clip-rule="evenodd" d="M29.011 9.26309C22.7049 10.4975 17.4249 14.0067 13.8546 18.7728C13.5436 19.1879 12.9548 19.2726 12.5395 18.962C12.1242 18.6513 12.0396 18.0629 12.3506 17.6478C16.189 12.5238 21.8698 8.74776 28.6503 7.42048C39.0105 5.3925 49.1413 9.62568 55.1289 17.4828C55.4432 17.8953 55.3634 18.4843 54.9505 18.7985C54.5377 19.1127 53.9483 19.0331 53.634 18.6207C48.0632 11.3106 38.642 7.37784 29.011 9.26309Z" fill="white"/>
<path fill-rule="evenodd" clip-rule="evenodd" d="M27.4782 12.3348C27.6456 12.8257 27.3828 13.3593 26.8912 13.5268C16.9375 16.9174 10.7705 27.2159 12.8439 37.8081C14.8924 48.2734 24.2828 55.44 34.632 55.0197C35.1509 54.9986 35.5884 55.4016 35.6093 55.9198C35.6301 56.438 35.2263 56.8751 34.7074 56.8962C23.4451 57.3536 13.2275 49.558 10.9982 38.1694C8.74194 26.6429 15.4529 15.4391 26.285 11.7493C26.7766 11.5818 27.3108 11.844 27.4782 12.3348Z" fill="white"/>
</svg>
