<svg width="131" height="72" viewBox="0 0 131 72" fill="none" xmlns="http://www.w3.org/2000/svg">
<path d="M76.1986 49.2221C75.5566 49.2221 74.9939 49.0845 74.5103 48.8094C74.0267 48.5343 73.6515 48.1466 73.3847 47.6463C73.1263 47.1377 72.997 46.5583 72.997 45.908C72.997 45.2577 73.1263 44.6824 73.3847 44.1821C73.6515 43.6735 74.0267 43.2817 74.5103 43.0065C74.9939 42.7314 75.5566 42.5938 76.1986 42.5938C76.8323 42.5938 77.3909 42.7314 77.8744 43.0065C78.358 43.2817 78.7332 43.6735 79 44.1821C79.2668 44.6824 79.4002 45.2577 79.4002 45.908C79.4002 46.5583 79.2668 47.1377 79 47.6463C78.7332 48.1466 78.358 48.5343 77.8744 48.8094C77.3909 49.0845 76.8323 49.2221 76.1986 49.2221ZM76.1986 48.1841C76.5404 48.1841 76.8656 48.1049 77.1741 47.9465C77.4909 47.7881 77.7494 47.5379 77.9495 47.1961C78.1579 46.8543 78.2621 46.4207 78.2621 45.8955C78.2621 45.3785 78.1579 44.9492 77.9495 44.6073C77.7494 44.2655 77.4909 44.0195 77.1741 43.8695C76.8656 43.7111 76.5404 43.6319 76.1986 43.6319C75.8484 43.6319 75.5149 43.7111 75.1981 43.8695C74.8896 44.0195 74.6353 44.2655 74.4352 44.6073C74.2351 44.9492 74.1351 45.3785 74.1351 45.8955C74.1351 46.4207 74.2351 46.8543 74.4352 47.1961C74.6353 47.5379 74.8896 47.7881 75.1981 47.9465C75.5149 48.1049 75.8484 48.1841 76.1986 48.1841Z" fill="#9D9D9D"/>
<path d="M81.5562 49.1596C81.3978 49.1596 81.2644 49.1054 81.156 48.997C81.0476 48.8886 80.9934 48.7552 80.9934 48.5968V43.2317C80.9934 43.0732 81.0476 42.9398 81.156 42.8315C81.2644 42.7147 81.3978 42.6564 81.5562 42.6564C81.7146 42.6564 81.848 42.7147 81.9564 42.8315C82.0731 42.9398 82.1315 43.0732 82.1315 43.2317V43.7694C82.7151 42.9857 83.3696 42.5938 84.095 42.5938H84.1575C84.3159 42.5938 84.4451 42.648 84.5452 42.7564C84.6536 42.8648 84.7078 42.9982 84.7078 43.1566C84.7078 43.315 84.6536 43.4443 84.5452 43.5443C84.4368 43.6444 84.2992 43.6944 84.1325 43.6944H84.0699C83.6698 43.6944 83.3029 43.7944 82.9694 43.9945C82.6359 44.1863 82.3566 44.4531 82.1315 44.7949V48.5968C82.1315 48.7552 82.0731 48.8886 81.9564 48.997C81.848 49.1054 81.7146 49.1596 81.5562 49.1596Z" fill="#9D9D9D"/>
<path d="M87.4067 49.2221C87.0399 49.2221 86.6981 49.1471 86.3812 48.997C86.0728 48.8469 85.8268 48.6301 85.6434 48.3467C85.46 48.0549 85.3682 47.7214 85.3682 47.3462C85.3682 46.7292 85.61 46.2373 86.0936 45.8705C86.5855 45.5036 87.3025 45.3202 88.2446 45.3202H89.7579V45.2201C89.7579 44.6699 89.6203 44.2738 89.3452 44.0321C89.0784 43.7903 88.6574 43.6694 88.0821 43.6694C87.7652 43.6694 87.4818 43.6944 87.2317 43.7444C86.9899 43.7944 86.7189 43.8695 86.4188 43.9695C86.3521 43.9862 86.2979 43.9945 86.2562 43.9945C86.1311 43.9945 86.0227 43.9487 85.931 43.857C85.8393 43.7653 85.7934 43.6527 85.7934 43.5193C85.7934 43.2942 85.9018 43.1358 86.1186 43.0441C86.8273 42.7439 87.5485 42.5938 88.2822 42.5938C88.8574 42.5938 89.341 42.7106 89.7329 42.944C90.1331 43.1775 90.4249 43.4818 90.6083 43.857C90.8001 44.2238 90.8959 44.624 90.8959 45.0576V48.5968C90.8959 48.7552 90.8376 48.8886 90.7209 48.997C90.6125 49.1054 90.4791 49.1596 90.3207 49.1596C90.1623 49.1596 90.0289 49.1054 89.9205 48.997C89.8121 48.8886 89.7579 48.7552 89.7579 48.5968V48.2716C89.1409 48.9053 88.3572 49.2221 87.4067 49.2221ZM87.8319 48.2216C88.1988 48.2216 88.5531 48.1341 88.895 47.959C89.2368 47.7756 89.5244 47.5504 89.7579 47.2836V46.2331H88.3947C87.1358 46.2331 86.5063 46.5625 86.5063 47.2211C86.5063 47.5213 86.6063 47.763 86.8064 47.9465C87.0149 48.1299 87.3567 48.2216 87.8319 48.2216Z" fill="#9D9D9D"/>
<path d="M93.3662 49.1596C93.2078 49.1596 93.0744 49.1054 92.966 48.997C92.8576 48.8886 92.8034 48.7552 92.8034 48.5968V40.4803C92.8034 40.3219 92.8576 40.1885 92.966 40.0801C93.0744 39.9634 93.2078 39.905 93.3662 39.905C93.5329 39.905 93.6705 39.9592 93.7789 40.0676C93.8873 40.176 93.9415 40.3136 93.9415 40.4803V48.5968C93.9415 48.7552 93.8831 48.8886 93.7664 48.997C93.658 49.1054 93.5246 49.1596 93.3662 49.1596Z" fill="#9D9D9D"/>
<path d="M73.9475 37.4351C73.7891 37.4351 73.6557 37.3809 73.5473 37.2725C73.439 37.1641 73.3848 37.0307 73.3848 36.8723V31.5072C73.3848 31.3488 73.439 31.2154 73.5473 31.107C73.6557 30.9903 73.7891 30.9319 73.9475 30.9319C74.106 30.9319 74.2394 30.9903 74.3477 31.107C74.4645 31.2154 74.5228 31.3488 74.5228 31.5072V32.0449C75.1064 31.2612 75.7609 30.8694 76.4863 30.8694H76.5488C76.7072 30.8694 76.8365 30.9236 76.9365 31.0319C77.0449 31.1403 77.0991 31.2737 77.0991 31.4321C77.0991 31.5905 77.0449 31.7198 76.9365 31.8198C76.8281 31.9199 76.6906 31.9699 76.5238 31.9699H76.4613C76.0611 31.9699 75.6942 32.0699 75.3607 32.27C75.0272 32.4618 74.7479 32.7286 74.5228 33.0704V36.8723C74.5228 37.0307 74.4645 37.1641 74.3477 37.2725C74.2394 37.3809 74.106 37.4351 73.9475 37.4351Z" fill="#9D9D9D"/>
<path d="M79.7981 37.4976C79.4312 37.4976 79.0894 37.4226 78.7726 37.2725C78.4641 37.1224 78.2181 36.9057 78.0347 36.6222C77.8513 36.3304 77.7596 35.9969 77.7596 35.6217C77.7596 35.0047 78.0014 34.5128 78.4849 34.146C78.9768 33.7791 79.6938 33.5957 80.636 33.5957H82.1492V33.4956C82.1492 32.9454 82.0117 32.5493 81.7365 32.3076C81.4697 32.0658 81.0487 31.9449 80.4734 31.9449C80.1566 31.9449 79.8731 31.9699 79.623 32.0199C79.3812 32.0699 79.1102 32.145 78.8101 32.245C78.7434 32.2617 78.6892 32.27 78.6475 32.27C78.5224 32.27 78.4141 32.2242 78.3223 32.1325C78.2306 32.0408 78.1848 31.9282 78.1848 31.7948C78.1848 31.5697 78.2932 31.4113 78.5099 31.3196C79.2186 31.0194 79.9398 30.8694 80.6735 30.8694C81.2488 30.8694 81.7323 30.9861 82.1242 31.2195C82.5244 31.453 82.8162 31.7573 82.9996 32.1325C83.1914 32.4993 83.2873 32.8995 83.2873 33.3331V36.8723C83.2873 37.0307 83.2289 37.1641 83.1122 37.2725C83.0038 37.3809 82.8704 37.4351 82.712 37.4351C82.5536 37.4351 82.4202 37.3809 82.3118 37.2725C82.2034 37.1641 82.1492 37.0307 82.1492 36.8723V36.5471C81.5322 37.1808 80.7485 37.4976 79.7981 37.4976ZM80.2233 36.4971C80.5901 36.4971 80.9445 36.4096 81.2863 36.2345C81.6281 36.0511 81.9158 35.826 82.1492 35.5592V34.5086H80.786C79.5271 34.5086 78.8976 34.838 78.8976 35.4966C78.8976 35.7968 78.9977 36.0386 79.1978 36.222C79.4062 36.4054 79.748 36.4971 80.2233 36.4971Z" fill="#9D9D9D"/>
<path d="M87.8335 37.4976C87.3166 37.4976 86.8247 37.3684 86.3578 37.1099C85.8993 36.8431 85.5241 36.4596 85.2323 35.9594C84.9488 35.4508 84.8071 34.8588 84.8071 34.1835C84.8071 33.5082 84.9488 32.9204 85.2323 32.4201C85.5241 31.9115 85.8993 31.528 86.3578 31.2696C86.8247 31.0028 87.3166 30.8694 87.8335 30.8694C88.6506 30.8694 89.3635 31.1862 89.9721 31.8198V28.7558C89.9721 28.5891 90.0263 28.4515 90.1347 28.3431C90.2514 28.2347 90.389 28.1805 90.5474 28.1805C90.7058 28.1805 90.8392 28.2389 90.9476 28.3556C91.056 28.464 91.1102 28.5974 91.1102 28.7558V36.8723C91.1102 37.0307 91.056 37.1641 90.9476 37.2725C90.8392 37.3809 90.7058 37.4351 90.5474 37.4351C90.389 37.4351 90.2514 37.3809 90.1347 37.2725C90.0263 37.1641 89.9721 37.0307 89.9721 36.8723V36.5471C89.3635 37.1808 88.6506 37.4976 87.8335 37.4976ZM87.9961 36.4346C88.3796 36.4346 88.7382 36.3512 89.0717 36.1845C89.4135 36.0094 89.7136 35.7801 89.9721 35.4966V32.8703C89.7136 32.5869 89.4135 32.3618 89.0717 32.195C88.7382 32.0199 88.3796 31.9324 87.9961 31.9324C87.3792 31.9324 86.8831 32.1283 86.5079 32.5202C86.1327 32.912 85.9451 33.4665 85.9451 34.1835C85.9451 34.9005 86.1327 35.4549 86.5079 35.8468C86.8831 36.2387 87.3792 36.4346 87.9961 36.4346Z" fill="#9D9D9D"/>
<path d="M93.6221 29.6938C93.447 29.6938 93.297 29.6313 93.1719 29.5062C93.0468 29.3811 92.9843 29.2311 92.9843 29.056V29.0059C92.9843 28.8309 93.0468 28.6808 93.1719 28.5557C93.297 28.4307 93.447 28.3681 93.6221 28.3681H93.6972C93.8722 28.3681 94.0223 28.4307 94.1474 28.5557C94.2724 28.6808 94.335 28.8309 94.335 29.0059V29.056C94.335 29.2311 94.2724 29.3811 94.1474 29.5062C94.0223 29.6313 93.8722 29.6938 93.6972 29.6938H93.6221ZM93.6471 37.4351C93.4887 37.4351 93.3553 37.3809 93.2469 37.2725C93.1386 37.1641 93.0844 37.0307 93.0844 36.8723V31.5072C93.0844 31.3488 93.1386 31.2154 93.2469 31.107C93.3553 30.9903 93.4887 30.9319 93.6471 30.9319C93.8139 30.9319 93.9515 30.9861 94.0598 31.0945C94.1682 31.2029 94.2224 31.3404 94.2224 31.5072V36.8723C94.2224 37.0307 94.1641 37.1641 94.0473 37.2725C93.9389 37.3809 93.8055 37.4351 93.6471 37.4351Z" fill="#9D9D9D"/>
<path d="M99.0126 37.4976C98.3706 37.4976 97.8078 37.36 97.3242 37.0849C96.8407 36.8098 96.4655 36.4221 96.1987 35.9218C95.9402 35.4133 95.811 34.8338 95.811 34.1835C95.811 33.5332 95.9402 32.9579 96.1987 32.4576C96.4655 31.9491 96.8407 31.5572 97.3242 31.2821C97.8078 31.0069 98.3706 30.8694 99.0126 30.8694C99.6462 30.8694 100.205 31.0069 100.688 31.2821C101.172 31.5572 101.547 31.9491 101.814 32.4576C102.081 32.9579 102.214 33.5332 102.214 34.1835C102.214 34.8338 102.081 35.4133 101.814 35.9218C101.547 36.4221 101.172 36.8098 100.688 37.0849C100.205 37.36 99.6462 37.4976 99.0126 37.4976ZM99.0126 36.4596C99.3544 36.4596 99.6796 36.3804 99.988 36.222C100.305 36.0636 100.563 35.8134 100.763 35.4716C100.972 35.1298 101.076 34.6962 101.076 34.171C101.076 33.6541 100.972 33.2247 100.763 32.8828C100.563 32.541 100.305 32.2951 99.988 32.145C99.6796 31.9866 99.3544 31.9074 99.0126 31.9074C98.6624 31.9074 98.3289 31.9866 98.0121 32.145C97.7036 32.2951 97.4493 32.541 97.2492 32.8828C97.0491 33.2247 96.949 33.6541 96.949 34.171C96.949 34.6962 97.0491 35.1298 97.2492 35.4716C97.4493 35.8134 97.7036 36.0636 98.0121 36.222C98.3289 36.3804 98.6624 36.4596 99.0126 36.4596Z" fill="#9D9D9D"/>
<path d="M104.37 37.4351C104.212 37.4351 104.078 37.3809 103.97 37.2725C103.862 37.1641 103.807 37.0307 103.807 36.8723V28.7558C103.807 28.5974 103.862 28.464 103.97 28.3556C104.078 28.2389 104.212 28.1805 104.37 28.1805C104.537 28.1805 104.674 28.2347 104.783 28.3431C104.891 28.4515 104.945 28.5891 104.945 28.7558V36.8723C104.945 37.0307 104.887 37.1641 104.77 37.2725C104.662 37.3809 104.529 37.4351 104.37 37.4351Z" fill="#9D9D9D"/>
<path d="M109.736 37.4976C109.094 37.4976 108.531 37.36 108.047 37.0849C107.564 36.8098 107.189 36.4221 106.922 35.9218C106.663 35.4133 106.534 34.8338 106.534 34.1835C106.534 33.5332 106.663 32.9579 106.922 32.4576C107.189 31.9491 107.564 31.5572 108.047 31.2821C108.531 31.0069 109.094 30.8694 109.736 30.8694C110.369 30.8694 110.928 31.0069 111.411 31.2821C111.895 31.5572 112.27 31.9491 112.537 32.4576C112.804 32.9579 112.937 33.5332 112.937 34.1835C112.937 34.8338 112.804 35.4133 112.537 35.9218C112.27 36.4221 111.895 36.8098 111.411 37.0849C110.928 37.36 110.369 37.4976 109.736 37.4976ZM109.736 36.4596C110.077 36.4596 110.403 36.3804 110.711 36.222C111.028 36.0636 111.286 35.8134 111.486 35.4716C111.695 35.1298 111.799 34.6962 111.799 34.171C111.799 33.6541 111.695 33.2247 111.486 32.8828C111.286 32.541 111.028 32.2951 110.711 32.145C110.403 31.9866 110.077 31.9074 109.736 31.9074C109.385 31.9074 109.052 31.9866 108.735 32.145C108.427 32.2951 108.172 32.541 107.972 32.8828C107.772 33.2247 107.672 33.6541 107.672 34.171C107.672 34.6962 107.772 35.1298 107.972 35.4716C108.172 35.8134 108.427 36.0636 108.735 36.222C109.052 36.3804 109.385 36.4596 109.736 36.4596Z" fill="#9D9D9D"/>
<path d="M117.507 40.374C117.023 40.374 116.536 40.3115 116.044 40.1864C115.552 40.0614 115.147 39.9071 114.831 39.7237C114.68 39.632 114.605 39.4861 114.605 39.286C114.605 39.1526 114.651 39.0317 114.743 38.9233C114.843 38.8233 114.964 38.7732 115.106 38.7732C115.172 38.7732 115.247 38.7899 115.331 38.8233C115.964 39.1401 116.652 39.2985 117.394 39.2985C118.67 39.2985 119.308 38.619 119.308 37.26V36.4221C118.716 37.0557 118.003 37.3725 117.169 37.3725C116.677 37.3725 116.198 37.2517 115.731 37.0099C115.272 36.7597 114.893 36.3929 114.593 35.9093C114.293 35.4174 114.143 34.8213 114.143 34.121C114.143 33.4206 114.293 32.8287 114.593 32.3451C114.893 31.8532 115.272 31.4863 115.731 31.2445C116.198 30.9944 116.677 30.8694 117.169 30.8694C118.003 30.8694 118.716 31.1862 119.308 31.8198V31.5072C119.308 31.3488 119.362 31.2154 119.47 31.107C119.579 30.9903 119.712 30.9319 119.871 30.9319C120.029 30.9319 120.162 30.9903 120.271 31.107C120.387 31.2154 120.446 31.3488 120.446 31.5072V37.0974C120.446 38.1479 120.192 38.9567 119.683 39.5236C119.174 40.0905 118.449 40.374 117.507 40.374ZM117.407 36.3345C117.799 36.3345 118.145 36.2512 118.445 36.0844C118.745 35.9177 119.033 35.6926 119.308 35.4091V32.8328C119.033 32.5493 118.745 32.3242 118.445 32.1575C118.145 31.9907 117.799 31.9074 117.407 31.9074C116.782 31.9074 116.269 32.0991 115.869 32.4826C115.477 32.8578 115.281 33.4039 115.281 34.121C115.281 34.838 115.477 35.3882 115.869 35.7718C116.269 36.1469 116.782 36.3345 117.407 36.3345Z" fill="#9D9D9D"/>
<path d="M122.958 29.6938C122.783 29.6938 122.633 29.6313 122.508 29.5062C122.383 29.3811 122.32 29.2311 122.32 29.056V29.0059C122.32 28.8309 122.383 28.6808 122.508 28.5557C122.633 28.4307 122.783 28.3681 122.958 28.3681H123.033C123.208 28.3681 123.358 28.4307 123.483 28.5557C123.608 28.6808 123.671 28.8309 123.671 29.0059V29.056C123.671 29.2311 123.608 29.3811 123.483 29.5062C123.358 29.6313 123.208 29.6938 123.033 29.6938H122.958ZM122.983 37.4351C122.824 37.4351 122.691 37.3809 122.583 37.2725C122.474 37.1641 122.42 37.0307 122.42 36.8723V31.5072C122.42 31.3488 122.474 31.2154 122.583 31.107C122.691 30.9903 122.824 30.9319 122.983 30.9319C123.15 30.9319 123.287 30.9861 123.396 31.0945C123.504 31.2029 123.558 31.3404 123.558 31.5072V36.8723C123.558 37.0307 123.5 37.1641 123.383 37.2725C123.275 37.3809 123.141 37.4351 122.983 37.4351Z" fill="#9D9D9D"/>
<path d="M127.16 37.4976C126.793 37.4976 126.451 37.4226 126.135 37.2725C125.826 37.1224 125.58 36.9057 125.397 36.6222C125.213 36.3304 125.122 35.9969 125.122 35.6217C125.122 35.0047 125.363 34.5128 125.847 34.146C126.339 33.7791 127.056 33.5957 127.998 33.5957H129.511V33.4956C129.511 32.9454 129.374 32.5493 129.099 32.3076C128.832 32.0658 128.411 31.9449 127.835 31.9449C127.519 31.9449 127.235 31.9699 126.985 32.0199C126.743 32.0699 126.472 32.145 126.172 32.245C126.105 32.2617 126.051 32.27 126.01 32.27C125.885 32.27 125.776 32.2242 125.684 32.1325C125.593 32.0408 125.547 31.9282 125.547 31.7948C125.547 31.5697 125.655 31.4113 125.872 31.3196C126.581 31.0194 127.302 30.8694 128.036 30.8694C128.611 30.8694 129.094 30.9861 129.486 31.2195C129.886 31.453 130.178 31.7573 130.362 32.1325C130.553 32.4993 130.649 32.8995 130.649 33.3331V36.8723C130.649 37.0307 130.591 37.1641 130.474 37.2725C130.366 37.3809 130.232 37.4351 130.074 37.4351C129.916 37.4351 129.782 37.3809 129.674 37.2725C129.565 37.1641 129.511 37.0307 129.511 36.8723V36.5471C128.894 37.1808 128.111 37.4976 127.16 37.4976ZM127.585 36.4971C127.952 36.4971 128.307 36.4096 128.648 36.2345C128.99 36.0511 129.278 35.826 129.511 35.5592V34.5086H128.148C126.889 34.5086 126.26 34.838 126.26 35.4966C126.26 35.7968 126.36 36.0386 126.56 36.222C126.768 36.4054 127.11 36.4971 127.585 36.4971Z" fill="#9D9D9D"/>
<path d="M26.4406 48.19C26.005 48.19 25.6387 48.0415 25.3416 47.7445C25.0446 47.4474 24.8961 47.0811 24.8961 46.6455V26.5372C24.8961 26.0818 25.0446 25.7154 25.3416 25.4382C25.6387 25.1412 26.005 24.9927 26.4406 24.9927H31.8167C34.0543 24.9927 36.0443 25.4877 37.7868 26.4778C39.5293 27.4678 40.8857 28.844 41.856 30.6064C42.8263 32.3489 43.3114 34.3389 43.3114 36.5765C43.3114 38.814 42.8263 40.814 41.856 42.5763C40.8857 44.3386 39.5293 45.7148 37.7868 46.7049C36.0443 47.6949 34.0543 48.19 31.8167 48.19H26.4406ZM31.8167 45.4574C33.4602 45.4574 34.9255 45.0812 36.2126 44.3287C37.5195 43.5763 38.5294 42.5268 39.2422 41.1803C39.9749 39.814 40.3412 38.2794 40.3412 36.5765C40.3412 34.8736 39.9749 33.3489 39.2422 32.0024C38.5294 30.6559 37.5195 29.6064 36.2126 28.8539C34.9255 28.1015 33.4602 27.7253 31.8167 27.7253H27.9851V45.4574H31.8167Z" fill="#16A7A2"/>
<path d="M48.4856 48.19C48.05 48.19 47.6836 48.0514 47.3866 47.7742C47.1094 47.4771 46.9708 47.1108 46.9708 46.6752V33.4578C46.9708 33.0023 47.1094 32.636 47.3866 32.3588C47.6836 32.0816 48.05 31.943 48.4856 31.943C48.941 31.943 49.3073 32.0816 49.5846 32.3588C49.8618 32.636 50.0004 33.0023 50.0004 33.4578V46.6752C50.0004 47.1108 49.8618 47.4771 49.5846 47.7742C49.3073 48.0514 48.941 48.19 48.4856 48.19ZM48.4856 29.2995C47.9509 29.2995 47.4856 29.1114 47.0896 28.7351C46.7134 28.3391 46.5252 27.8738 46.5252 27.3391C46.5252 26.8045 46.7134 26.3491 47.0896 25.9728C47.4856 25.5768 47.9509 25.3788 48.4856 25.3788C49.0202 25.3788 49.4757 25.5768 49.8519 25.9728C50.2479 26.3491 50.4459 26.8045 50.4459 27.3391C50.4459 27.8738 50.2479 28.3391 49.8519 28.7351C49.4757 29.1114 49.0202 29.2995 48.4856 29.2995Z" fill="#16A7A2"/>
<path d="M66.7749 45.9029C67.0521 46.1999 67.1907 46.5465 67.1907 46.9425C67.1907 47.2989 67.062 47.5959 66.8046 47.8336C66.5669 48.0712 66.2501 48.19 65.8541 48.19C65.3789 48.19 65.0224 48.0316 64.7848 47.7148L60.0622 42.0714L55.5772 47.7148C55.2802 48.0316 54.9237 48.19 54.5079 48.19C54.1119 48.19 53.7951 48.0712 53.5574 47.8336C53.3396 47.5959 53.2307 47.2989 53.2307 46.9425C53.2307 46.5465 53.3693 46.1801 53.6466 45.8435L58.2504 40.0813L53.3495 34.2894C53.0525 33.933 52.904 33.5568 52.904 33.1607C52.904 32.8241 53.0129 32.537 53.2307 32.2994C53.4683 32.0618 53.7951 31.943 54.2109 31.943C54.6861 31.943 55.0623 32.1113 55.3396 32.4479L60.2107 38.2695L64.5769 32.4479C64.8343 32.1113 65.2007 31.943 65.6759 31.943C66.0719 31.943 66.3788 32.0717 66.5966 32.3291C66.8343 32.5667 66.9531 32.8637 66.9531 33.2201C66.9531 33.6558 66.8145 34.0518 66.5372 34.4082L62.0522 40.2595L66.7749 45.9029Z" fill="#16A7A2"/>
<path fill-rule="evenodd" clip-rule="evenodd" d="M30.369 2.71888C11.3838 6.43521 -0.995559 24.8314 2.71905 43.8078C5.08483 55.8936 13.4075 65.301 24.049 69.5793C24.5768 69.7915 24.8325 70.3913 24.6201 70.9189C24.4077 71.4465 23.8077 71.7022 23.2799 71.49C12.0185 66.9624 3.20249 57.0024 0.697142 44.2036C-3.23595 24.111 9.87155 4.63283 29.9734 0.697918C35.9646 -0.474844 41.9039 -0.134405 47.3928 1.45471C47.9392 1.61292 48.2538 2.18397 48.0955 2.73019C47.9371 3.27642 47.3657 3.59098 46.8193 3.43278C41.6381 1.93273 36.0309 1.61058 30.369 2.71888Z" fill="#235D5A"/>
<path fill-rule="evenodd" clip-rule="evenodd" d="M24.9994 66.8667C25.1958 66.3285 25.7885 66.0539 26.3232 66.2535C31.1046 68.0379 36.245 68.6085 41.2896 67.9147C41.8538 67.8371 42.3751 68.2353 42.4538 68.8041C42.5326 69.3729 42.1391 69.8969 41.5749 69.9745C36.1944 70.7145 30.7118 70.106 25.6121 68.2027C25.0773 68.0031 24.803 67.405 24.9994 66.8667Z" fill="#6BA774"/>
<path fill-rule="evenodd" clip-rule="evenodd" d="M31.1109 6.51862C14.2246 9.82409 3.21485 26.1919 6.52006 43.0769C7.76492 49.4364 10.8612 54.9598 15.14 59.2005C15.5443 59.6012 15.5472 60.2539 15.1464 60.6583C14.7456 61.0626 14.0929 61.0655 13.6885 60.6648C9.12562 56.1426 5.82331 50.2504 4.49663 43.473C0.97269 25.4706 12.7111 8.01957 30.7149 4.49535C31.2736 4.38597 31.8153 4.75023 31.9246 5.30894C32.034 5.86765 31.6697 6.40924 31.1109 6.51862Z" fill="#6BA774"/>
<path fill-rule="evenodd" clip-rule="evenodd" d="M10.8758 26.2015C11.4099 26.3998 11.6826 26.9942 11.4848 27.5289C9.79864 32.0896 9.30443 37.1576 10.3078 42.2835C13.214 57.1298 27.5857 66.8133 42.4077 63.9119C47.1063 62.9921 51.2833 60.9196 54.7068 58.0454C55.1431 57.6791 55.7936 57.7365 56.1596 58.1737C56.5257 58.611 56.4687 59.2624 56.0324 59.6287C52.3486 62.7214 47.8539 64.9507 42.8046 65.9391C26.8647 69.0593 11.4092 58.6456 8.28389 42.6797C7.20547 37.1705 7.73654 31.7172 9.55065 26.8106C9.74839 26.2758 10.3417 26.0031 10.8758 26.2015Z" fill="#16A7A2"/>
<path fill-rule="evenodd" clip-rule="evenodd" d="M31.8511 10.1699C24.9276 11.5251 19.1307 15.3778 15.2109 20.6105C14.8695 21.0662 14.2231 21.1592 13.7671 20.8182C13.3111 20.4771 13.2182 19.8312 13.5596 19.3754C17.7738 13.7497 24.0108 9.60408 31.4551 8.14686C42.8294 5.92036 53.9519 10.5679 60.5257 19.1942C60.8708 19.6471 60.7831 20.2938 60.3299 20.6388C59.8767 20.9837 59.2295 20.8963 58.8844 20.4435C52.7684 12.4178 42.4249 8.10005 31.8511 10.1699Z" fill="#16A7A2"/>
<path fill-rule="evenodd" clip-rule="evenodd" d="M30.1682 13.5424C30.352 14.0812 30.0635 14.6671 29.5238 14.851C18.5956 18.5735 11.8249 29.8802 14.1013 41.5093C16.3504 52.9991 26.66 60.8673 38.0223 60.4058C38.592 60.3826 39.0724 60.8251 39.0952 61.394C39.1181 61.9629 38.6748 62.4429 38.1051 62.466C25.7403 62.9682 14.5225 54.4094 12.075 41.906C9.59778 29.2511 16.9657 16.9505 28.8582 12.8995C29.3979 12.7157 29.9844 13.0035 30.1682 13.5424Z" fill="#6BA774"/>
</svg>
