<svg width="20" height="20" viewBox="0 0 20 20" fill="none" xmlns="http://www.w3.org/2000/svg">
<g clip-path="url(#clip0_32_30)">
<path d="M9.99997 1.93255C12.6275 1.93255 12.9388 1.94259 13.9765 1.98993C14.936 2.03372 15.457 2.19399 15.8038 2.32876C16.2312 2.48651 16.6179 2.73806 16.9353 3.06489C17.2621 3.38231 17.5137 3.76895 17.6714 4.19638C17.8062 4.54313 17.9665 5.06419 18.0102 6.02364C18.0576 7.06134 18.0676 7.37255 18.0676 10.0002C18.0676 12.6279 18.0576 12.939 18.0102 13.9768C17.9664 14.9362 17.8061 15.4572 17.6714 15.804C17.5077 16.2284 17.2569 16.6139 16.9353 16.9355C16.6136 17.2572 16.2282 17.5079 15.8038 17.6716C15.457 17.8064 14.936 17.9667 13.9765 18.0105C12.939 18.0578 12.6278 18.0679 9.99997 18.0679C7.37211 18.0679 7.06102 18.0578 6.0234 18.0105C5.06395 17.9667 4.54293 17.8064 4.19614 17.6716C3.76871 17.5139 3.38208 17.2624 3.06465 16.9355C2.73782 16.6181 2.48628 16.2315 2.32852 15.804C2.19375 15.4573 2.03344 14.9362 1.98969 13.9768C1.94235 12.9391 1.93231 12.6279 1.93231 10.0002C1.93231 7.37255 1.94235 7.06142 1.98969 6.02364C2.03348 5.06419 2.19375 4.54317 2.32852 4.19638C2.48629 3.76893 2.73786 3.38228 3.06473 3.06485C3.38215 2.73802 3.76879 2.48648 4.19622 2.32872C4.54297 2.19395 5.06403 2.03364 6.02348 1.98989C7.06118 1.94255 7.37239 1.93251 10 1.93251M10 0.159424C7.32747 0.159424 6.99223 0.170752 5.94278 0.218643C4.89532 0.266455 4.18 0.432783 3.55407 0.676064C2.89745 0.923159 2.30263 1.31051 1.8111 1.8111C1.31039 2.30261 0.922934 2.89743 0.675747 3.55407C0.432661 4.18005 0.266333 4.89536 0.218716 5.94282C0.17063 6.99228 0.159302 7.32751 0.159302 10.0001C0.159302 12.6727 0.17063 13.0079 0.218716 14.0574C0.266528 15.1048 0.432856 15.8201 0.676138 16.4461C0.923234 17.1027 1.31058 17.6975 1.81118 18.189C2.30271 18.6896 2.89753 19.077 3.55415 19.3241C4.18012 19.5674 4.89543 19.7337 5.94286 19.7815C6.99247 19.8294 7.32758 19.8407 10.0001 19.8407C12.6727 19.8407 13.0079 19.8294 14.0574 19.7815C15.1048 19.7337 15.8202 19.5674 16.4461 19.3241C17.0998 19.0712 17.6935 18.6846 18.1891 18.189C18.6847 17.6934 19.0713 17.0998 19.3241 16.4461C19.5674 15.8201 19.7337 15.1048 19.7815 14.0574C19.8294 13.0077 19.8407 12.6726 19.8407 10.0001C19.8407 7.32755 19.8294 6.99228 19.7815 5.94282C19.7337 4.89536 19.5674 4.18005 19.3241 3.55411C19.077 2.89749 18.6897 2.30268 18.1891 1.81114C17.6975 1.31045 17.1027 0.923016 16.446 0.675869C15.82 0.432783 15.1047 0.266455 14.0572 0.218838C13.0078 0.170752 12.6725 0.159424 9.99997 0.159424H10Z" fill="white"/>
<path d="M9.99998 4.94678C9.00053 4.94678 8.02352 5.24315 7.1925 5.79842C6.36149 6.35368 5.71379 7.1429 5.33132 8.06628C4.94884 8.98965 4.84877 10.0057 5.04376 10.986C5.23874 11.9662 5.72002 12.8666 6.42674 13.5733C7.13346 14.2801 8.03388 14.7613 9.01412 14.9563C9.99437 15.1513 11.0104 15.0512 11.9338 14.6688C12.8572 14.2863 13.6464 13.6386 14.2017 12.8076C14.7569 11.9766 15.0533 10.9995 15.0533 10.0001C15.0533 8.65987 14.5209 7.37454 13.5732 6.42686C12.6255 5.47918 11.3402 4.94678 9.99998 4.94678ZM9.99998 13.2803C9.35122 13.2803 8.71703 13.0879 8.17761 12.7275C7.63819 12.367 7.21776 11.8547 6.9695 11.2553C6.72124 10.656 6.65628 9.99643 6.78285 9.36014C6.90943 8.72385 7.22184 8.13937 7.68058 7.68064C8.13933 7.2219 8.7238 6.90949 9.3601 6.78293C9.99639 6.65636 10.6559 6.72132 11.2553 6.9696C11.8547 7.21787 12.367 7.6383 12.7274 8.17772C13.0878 8.71715 13.2802 9.35134 13.2802 10.0001C13.2802 10.8701 12.9346 11.7044 12.3194 12.3195C11.7043 12.9347 10.8699 13.2803 9.99998 13.2803Z" fill="white"/>
<path d="M15.253 5.92788C15.9052 5.92788 16.4339 5.39919 16.4339 4.74702C16.4339 4.09485 15.9052 3.56616 15.253 3.56616C14.6008 3.56616 14.0721 4.09485 14.0721 4.74702C14.0721 5.39919 14.6008 5.92788 15.253 5.92788Z" fill="white"/>
</g>
<defs>
<clipPath id="clip0_32_30">
<rect width="20" height="20" fill="white"/>
</clipPath>
</defs>
</svg>
