<svg width="77" height="15" viewBox="0 0 77 15" fill="none" xmlns="http://www.w3.org/2000/svg">
<path fill-rule="evenodd" clip-rule="evenodd" d="M10.9669 8.06952H10.9341L8.92823 0H6.51116L4.47219 7.97161H4.43942L2.58166 0H0L3.10775 11.7104H5.72248L7.6787 3.74029H7.71176L9.70075 11.7104H12.2663L15.4231 0H12.8914L10.9669 8.06952ZM23.2988 3.96148C23.0683 3.6606 22.7533 3.42628 22.3535 3.25658C21.9531 3.08659 21.4408 3.00211 20.8164 3.00211C20.3774 3.00211 19.9282 3.11465 19.4673 3.33792C19.0077 3.56239 18.6291 3.92028 18.3329 4.41265H18.2841V0H15.9489V11.7104H18.2841V7.26626C18.2841 6.40287 18.4258 5.7823 18.7111 5.4044C18.9963 5.02696 19.4566 4.8392 20.0928 4.8392C20.6512 4.8392 21.0405 5.01084 21.2597 5.35545C21.4789 5.70006 21.589 6.22303 21.589 6.92165V11.7104H23.9235V6.49585C23.9235 5.9708 23.8773 5.49276 23.7844 5.06083C23.6903 4.62876 23.5288 4.26236 23.2988 3.96148ZM32.9168 9.82497V5.41276C32.9168 4.8992 32.8022 4.48608 32.5714 4.17475C32.3414 3.86312 32.0453 3.6194 31.6841 3.44448C31.3223 3.26957 30.9213 3.15181 30.4836 3.09181C30.0452 3.03271 29.6122 3.00197 29.1849 3.00197C28.7138 3.00197 28.2444 3.04868 27.7791 3.14106C27.3124 3.23375 26.8936 3.38971 26.5207 3.60836C26.1482 3.8276 25.8413 4.11699 25.6008 4.47728C25.3592 4.83905 25.2221 5.29232 25.1891 5.83976H27.5238C27.5677 5.37978 27.7219 5.05188 27.9844 4.85502C28.2474 4.65831 28.6086 4.55951 29.0698 4.55951C29.2779 4.55951 29.472 4.57354 29.6533 4.60115C29.8339 4.62861 29.9931 4.68279 30.1303 4.76443C30.2674 4.84726 30.3766 4.96173 30.4591 5.10904C30.5409 5.25739 30.5824 5.45679 30.5824 5.70782C30.5931 5.94826 30.5216 6.13198 30.3687 6.25765C30.2147 6.38362 30.0072 6.47913 29.7436 6.54391C29.4805 6.61032 29.179 6.65987 28.8394 6.69166C28.4993 6.72495 28.1541 6.76897 27.8036 6.82375C27.4523 6.87852 27.1046 6.95225 26.7597 7.04493C26.4142 7.13761 26.1063 7.27761 25.8395 7.46297C25.5703 7.64983 25.3505 7.89758 25.1811 8.20951C25.011 8.52114 24.926 8.91724 24.926 9.39767C24.926 9.83616 24.9999 10.2133 25.1487 10.5293C25.2959 10.8473 25.5013 11.1097 25.7644 11.3168C26.028 11.5255 26.3343 11.678 26.6855 11.7762C27.0356 11.8747 27.414 11.9237 27.82 11.9237C28.346 11.9237 28.8615 11.8476 29.3647 11.6952C29.8691 11.5407 30.3087 11.2731 30.6807 10.8909C30.6914 11.0325 30.7107 11.1722 30.7383 11.3092C30.7658 11.4453 30.8014 11.58 30.8453 11.7104H33.213C33.1037 11.5364 33.0265 11.2731 32.983 10.9239C32.939 10.5742 32.9168 10.2079 32.9168 9.82497ZM30.5824 8.4301C30.5824 8.56129 30.5689 8.7371 30.5409 8.9556C30.514 9.17424 30.4398 9.38931 30.3195 9.60274C30.1987 9.81616 30.0114 9.99973 29.7605 10.152C29.5082 10.3052 29.1521 10.3829 28.6912 10.3829C28.5054 10.3829 28.3245 10.3654 28.1491 10.333C27.9735 10.3006 27.8204 10.2429 27.6883 10.1608C27.5574 10.0785 27.4528 9.9672 27.3762 9.82497C27.2996 9.68244 27.261 9.50752 27.261 9.30021C27.261 9.08156 27.2996 8.90082 27.3762 8.75859C27.4528 8.61725 27.5544 8.49979 27.6807 8.40652C27.8063 8.31294 27.9545 8.23981 28.1243 8.18444C28.2944 8.12936 28.4665 8.08653 28.6422 8.05325C28.828 8.02086 29.0153 7.99325 29.2009 7.97161C29.3879 7.95057 29.5658 7.92206 29.7356 7.88967C29.9058 7.85669 30.0641 7.81595 30.2126 7.7664C30.3605 7.71744 30.4839 7.64983 30.5827 7.56178V8.4301H30.5824ZM37.2741 0.689076H34.9392V3.23121H33.526V4.7895H34.9392V9.79109C34.9392 10.2178 35.011 10.5624 35.1532 10.8248C35.2961 11.0872 35.4904 11.2906 35.7364 11.4316C35.9833 11.5738 36.2683 11.6701 36.5918 11.7191C36.9147 11.7674 37.2584 11.7925 37.6193 11.7925C37.8505 11.7925 38.0854 11.7864 38.3269 11.7762C38.5676 11.7652 38.7868 11.7435 38.9845 11.7104V9.90631C38.8747 9.92869 38.7595 9.94571 38.639 9.95615C38.5186 9.9672 38.3924 9.97242 38.2609 9.97242C37.8663 9.97242 37.6033 9.90631 37.4713 9.77512C37.3407 9.64393 37.2744 9.38155 37.2744 8.98813V4.78965H38.9847V3.23136H37.2744V0.689076H37.2741ZM46.9256 7.99639C46.7723 7.72878 46.5691 7.50402 46.3173 7.32328C46.0653 7.14314 45.7767 6.99852 45.4539 6.88837C45.1301 6.77987 44.7987 6.68718 44.4592 6.61032C44.1302 6.53391 43.8073 6.46257 43.4896 6.3969C43.1717 6.33138 42.8887 6.2575 42.6421 6.17571C42.3958 6.09348 42.1962 5.98677 42.0424 5.85558C41.8886 5.72439 41.8127 5.5547 41.8127 5.34694C41.8127 5.17262 41.8557 5.03322 41.9434 4.9286C42.0314 4.82547 42.1383 4.74577 42.2645 4.6907C42.3908 4.63652 42.5293 4.60115 42.6833 4.58488C42.8367 4.56832 42.9795 4.55951 43.1108 4.55951C43.5275 4.55951 43.8893 4.63966 44.1968 4.79741C44.503 4.95651 44.6735 5.25948 44.7052 5.70782H46.9256C46.8818 5.18307 46.7477 4.74846 46.5224 4.404C46.2986 4.05968 46.0156 3.78402 45.6764 3.57582C45.3366 3.36852 44.9501 3.22076 44.5165 3.13271C44.0833 3.04525 43.6372 3.00211 43.1775 3.00211C42.7166 3.00211 42.2669 3.04286 41.8294 3.12539C41.3896 3.20673 40.995 3.34926 40.6455 3.55135C40.2936 3.75358 40.0126 4.02968 39.798 4.37952C39.5841 4.72965 39.4771 5.17799 39.4771 5.72454C39.4771 6.09706 39.5543 6.41108 39.708 6.66748C39.8603 6.92464 40.0639 7.13761 40.3153 7.30761C40.5679 7.47671 40.8559 7.61371 41.1791 7.71744C41.5023 7.82177 41.8343 7.91161 42.1734 7.98847C43.0074 8.1628 43.6567 8.33771 44.1225 8.51263C44.5883 8.68725 44.821 8.95052 44.821 9.30021C44.821 9.50752 44.7719 9.67885 44.6735 9.81616C44.575 9.95347 44.4511 10.0621 44.3034 10.1444C44.1547 10.2266 43.9904 10.2866 43.8104 10.3242C43.6292 10.363 43.4563 10.3829 43.2917 10.3829C43.062 10.3829 42.8396 10.3543 42.6269 10.3006C42.4123 10.2455 42.2236 10.1606 42.059 10.0459C41.8945 9.93108 41.7595 9.78377 41.6558 9.60274C41.5524 9.4226 41.4994 9.20753 41.4994 8.9556H39.2799C39.3023 9.52408 39.4307 9.9972 39.6671 10.374C39.9014 10.7512 40.2025 11.0545 40.5707 11.2845C40.9377 11.5139 41.3577 11.678 41.8294 11.7762C42.2996 11.8747 42.7823 11.9237 43.2751 11.9237C43.7573 11.9237 44.2316 11.8773 44.698 11.7849C45.1635 11.6916 45.5774 11.5301 45.9392 11.3004C46.3016 11.071 46.5938 10.7676 46.8194 10.3903C47.0433 10.0132 47.1555 9.54557 47.1555 8.98799C47.1553 8.59427 47.079 8.26399 46.9256 7.99639ZM51.5623 0L47.1229 11.7104H49.7211L50.641 9.10321H55.0317L55.919 11.7104H58.6L54.2099 0H51.5623ZM51.3155 7.18463L52.8446 2.88675H52.8777L54.3576 7.18463H51.3155ZM66.6722 4.37952C66.3548 3.96416 65.9547 3.63089 65.4722 3.37911C64.9893 3.12748 64.4143 3.00226 63.7462 3.00226C63.2194 3.00226 62.7375 3.10629 62.299 3.31359C61.8594 3.5212 61.4988 3.85492 61.2143 4.314H61.1809V3.23136H58.9604V14.6794H61.2965V10.6616H61.3281C61.613 11.0767 61.9781 11.391 62.4223 11.6043C62.8654 11.8177 63.3508 11.9238 63.8772 11.9238C64.5026 11.9238 65.0478 11.8031 65.5132 11.563C65.9793 11.3231 66.3686 10.9998 66.6807 10.5955C66.9937 10.1912 67.2258 9.72631 67.3804 9.20186C67.533 8.67651 67.6101 8.12936 67.6101 7.56192C67.6101 6.96031 67.5328 6.38362 67.3804 5.83125C67.2258 5.27933 66.9907 4.79547 66.6722 4.37952ZM65.1771 8.49636C65.1105 8.82456 64.9977 9.11082 64.8393 9.35693C64.6802 9.60289 64.4716 9.80347 64.2135 9.9563C63.9566 10.1085 63.6358 10.186 63.2523 10.186C62.8792 10.186 62.5627 10.1084 62.299 9.9563C62.0357 9.80362 61.825 9.60303 61.6658 9.35693C61.5071 9.11097 61.3923 8.82471 61.3203 8.49636C61.2493 8.16817 61.2143 7.8346 61.2143 7.49655C61.2143 7.14612 61.2464 6.80718 61.3118 6.47928C61.3784 6.15139 61.4903 5.86095 61.6497 5.61007C61.8078 5.35814 62.0164 5.15292 62.2745 4.99442C62.532 4.83637 62.8519 4.75742 63.2366 4.75742C63.6083 4.75742 63.9246 4.83637 64.1817 4.99442C64.4389 5.15307 64.6504 5.36172 64.8149 5.61798C64.9789 5.87513 65.0963 6.16751 65.1675 6.496C65.2394 6.8239 65.2742 7.15806 65.2742 7.4967C65.2744 7.8346 65.2427 8.16817 65.1771 8.49636ZM76.6858 5.8311C76.5324 5.27933 76.2962 4.79547 75.9788 4.37937C75.6603 3.96401 75.2611 3.63075 74.7788 3.37897C74.296 3.12733 73.7204 3.00211 73.0517 3.00211C72.5256 3.00211 72.0435 3.10614 71.6051 3.31344C71.1661 3.52105 70.8046 3.85477 70.5197 4.31385H70.4875V3.23121H68.2674V14.6792H70.6015V10.6615H70.6349C70.9201 11.0766 71.2852 11.3909 71.7285 11.6041C72.1725 11.8176 72.6579 11.9237 73.1842 11.9237C73.8085 11.9237 74.3537 11.8029 74.8203 11.5628C75.2852 11.323 75.6751 10.9997 75.9872 10.5954C76.2999 10.1911 76.5326 9.72616 76.686 9.20171C76.8393 8.67636 76.9159 8.12922 76.9159 7.56178C76.9158 6.96016 76.8393 6.38347 76.6858 5.8311ZM74.4827 8.49636C74.4172 8.82456 74.3048 9.11082 74.146 9.35693C73.9865 9.60289 73.7784 9.80347 73.5206 9.9563C73.2634 10.1085 72.9426 10.186 72.5591 10.186C72.1862 10.186 71.8683 10.1084 71.6052 9.9563C71.3416 9.80362 71.1312 9.60303 70.9717 9.35693C70.8139 9.11097 70.6979 8.82471 70.6262 8.49636C70.5555 8.16817 70.5198 7.8346 70.5198 7.49655C70.5198 7.14612 70.5538 6.80718 70.6189 6.47928C70.6846 6.15139 70.7968 5.86095 70.9556 5.61007C71.1148 5.35814 71.3235 5.15292 71.5807 4.99442C71.8376 4.83637 72.1584 4.75742 72.5425 4.75742C72.9151 4.75742 73.2302 4.83637 73.4875 4.99442C73.7457 5.15307 73.956 5.36172 74.1205 5.61798C74.2861 5.87513 74.4031 6.16751 74.4746 6.496C74.5464 6.8239 74.5813 7.15806 74.5813 7.4967C74.5815 7.8346 74.5481 8.16817 74.4827 8.49636Z" fill="white"/>
</svg>
