<svg width="21" height="21" viewBox="0 0 21 21" fill="none" xmlns="http://www.w3.org/2000/svg">
<path fill-rule="evenodd" clip-rule="evenodd" d="M17.8601 3.05176C15.8948 1.08486 13.2812 0.00110553 10.4967 0C4.75918 0 0.0895759 4.66781 0.0872798 10.4053C0.0865145 12.2393 0.565859 14.0296 1.47673 15.6076L0 21L5.51816 19.553C7.03851 20.382 8.75032 20.8188 10.4925 20.8196H10.4968C16.2337 20.8196 20.9037 16.1512 20.906 10.4136C20.9071 7.63314 19.8254 5.01866 17.8601 3.05176ZM10.4968 19.062H10.4932C8.94078 19.0614 7.41808 18.6445 6.08975 17.8565L5.77379 17.669L2.49928 18.5277L3.37333 15.3361L3.16759 15.0089C2.30153 13.6318 1.8441 12.0402 1.84478 10.406C1.84668 5.63719 5.7279 1.7575 10.5002 1.7575C12.8111 1.75838 14.9834 2.65921 16.6168 4.29403C18.2503 5.92885 19.1494 8.10192 19.1485 10.4129C19.1465 15.1821 15.2654 19.062 10.4968 19.062ZM15.2425 12.5844C14.9823 12.4543 13.7036 11.8252 13.4652 11.7384C13.2268 11.6517 13.0534 11.6083 12.88 11.8686C12.7066 12.1289 12.2082 12.7146 12.0564 12.8881C11.9047 13.0616 11.753 13.0833 11.4929 12.9532C11.2328 12.823 10.3948 12.5485 9.40131 11.6626C8.62815 10.9732 8.10611 10.1217 7.9544 9.86143C7.80269 9.60112 7.93827 9.46038 8.06847 9.33078C8.18545 9.21427 8.32855 9.0271 8.4586 8.87525C8.58863 8.72342 8.63197 8.61496 8.71866 8.44145C8.80537 8.26791 8.76203 8.11606 8.697 7.98592C8.63197 7.85578 8.11184 6.57598 7.89507 6.05539C7.68397 5.54838 7.46953 5.61698 7.30988 5.60904C7.15834 5.6015 6.98477 5.59988 6.8114 5.59988C6.638 5.59988 6.35623 5.66497 6.11781 5.92525C5.87941 6.18556 5.20754 6.8146 5.20754 8.09438C5.20754 9.37415 6.13949 10.6105 6.26955 10.7841C6.39958 10.9576 8.10356 13.5839 10.7127 14.7102C11.3332 14.978 11.8177 15.138 12.1954 15.2579C12.8185 15.4557 13.3855 15.4278 13.8336 15.3609C14.3333 15.2862 15.3724 14.7319 15.5892 14.1245C15.806 13.5171 15.806 12.9966 15.7409 12.8881C15.6759 12.7796 15.5025 12.7146 15.2425 12.5844Z" fill="white"/>
</svg>
