<svg width="71" height="88" viewBox="0 0 71 88" fill="none" xmlns="http://www.w3.org/2000/svg">
<path d="M26.2643 67.9994C25.0998 66.9975 23.8951 65.9619 22.9363 65.5557C21.8841 65.1112 20.3221 64.9654 18.6685 64.8125C15.5279 64.521 11.9688 64.1903 9.38604 61.5563C8.83078 60.9901 8.38448 60.3749 8.01576 59.7305L0.158463 74.5046C-0.0673014 74.9286 -0.0507397 75.4433 0.201175 75.8514C0.45309 76.2585 0.890672 76.4985 1.37358 76.4727L13.4106 75.8585L19.4713 86.4831C19.7058 86.8938 20.1364 87.1462 20.601 87.1462H20.6202C21.0927 87.1391 21.525 86.8724 21.7499 86.4484L30.03 70.8795C28.6222 70.0235 27.3775 68.9568 26.2643 67.9994Z" fill="url(#paint0_linear_41_192)"/>
<path d="M62.5654 59.7304C62.1966 60.3749 61.7503 60.9891 61.1951 61.5563C58.6123 64.1902 55.0532 64.5209 51.9135 64.8124C50.2599 64.9662 48.6978 65.1111 47.6457 65.5556C46.6869 65.9609 45.4822 66.9975 44.3177 67.9993C43.2045 68.9567 41.9598 70.0234 40.5511 70.8786L48.8312 86.4465C49.0561 86.8705 49.4885 87.1363 49.9609 87.1443H49.9801C50.4456 87.1443 50.8762 86.8919 51.1098 86.4812L57.1705 75.8566L69.2075 76.4709C69.6896 76.4975 70.128 76.2575 70.3799 75.8495C70.6319 75.4415 70.6484 74.9268 70.4227 74.5027L62.5654 59.7304Z" fill="url(#paint1_linear_41_192)"/>
<path d="M42.9134 66.3006C44.2645 65.1387 45.5406 64.0409 46.8115 63.504C48.1696 62.9297 49.892 62.7697 51.7156 62.5999C54.6226 62.3297 57.629 62.0505 59.6539 59.9855C61.6797 57.9205 61.9534 54.8546 62.2184 51.8891C62.384 50.0294 62.5418 48.2729 63.1049 46.8879C63.6314 45.5919 64.7079 44.2905 65.8481 42.9117C67.6751 40.7018 69.7471 38.1977 69.7471 35.1388C69.7471 32.08 67.676 29.575 65.8481 27.3651C64.7088 25.9872 63.6323 24.6858 63.1058 23.3897C62.5427 22.0048 62.3858 20.2482 62.2193 18.3886C61.9543 15.424 61.6806 12.3571 59.6557 10.2921C57.6308 8.22623 54.6243 7.94711 51.7164 7.67687C49.8929 7.50797 48.1696 7.34707 46.8124 6.77282C45.5415 6.2359 44.2653 5.13806 42.9142 3.97622C40.7472 2.11212 38.2917 0 35.2914 0C32.2911 0 29.8356 2.11212 27.6695 3.97622C26.3184 5.13806 25.0422 6.2359 23.7713 6.77282C22.4133 7.34707 20.6908 7.50708 18.8673 7.67687C15.9594 7.94711 12.9529 8.22623 10.928 10.2912C8.90313 12.3562 8.62855 15.4222 8.36443 18.3877C8.19794 20.2473 8.04104 22.0048 7.47793 23.3889C6.95144 24.6849 5.87492 25.9863 4.73564 27.3642C2.9086 29.5741 0.836624 32.0782 0.836624 35.1379C0.836624 38.1977 2.90773 40.7009 4.73564 42.9108C5.87492 44.2887 6.95144 45.5901 7.47793 46.8862C8.04104 48.2711 8.19794 50.0277 8.36443 51.8873C8.62942 54.8519 8.90313 57.9188 10.928 59.9838C12.9529 62.0488 15.9594 62.3288 18.8664 62.5981C20.6899 62.7679 22.4133 62.9279 23.7713 63.5022C25.0422 64.0391 26.3184 65.1369 27.6703 66.2997C29.8365 68.1629 32.2928 70.275 35.2923 70.275C38.2917 70.275 40.7481 68.1629 42.9151 66.2988L42.9134 66.3006ZM14.6004 35.1379C14.6004 23.5035 23.882 14.0381 35.2905 14.0381C46.6991 14.0381 55.9807 23.5035 55.9807 35.1379C55.9807 46.7724 46.6991 56.2378 35.2905 56.2378C23.882 56.2378 14.6004 46.7724 14.6004 35.1379Z" fill="url(#paint2_linear_41_192)"/>
<path d="M27.6764 37.8813L26.7551 43.3571C26.5886 44.3492 26.9808 45.3323 27.7784 45.9235C28.576 46.5155 29.6142 46.5911 30.4876 46.1235L35.2705 43.5385L40.0926 46.1235C40.4727 46.3271 40.8832 46.4275 41.292 46.4275C41.8229 46.4275 42.3511 46.2577 42.8018 45.9235C43.6002 45.3323 43.9916 44.3492 43.8251 43.3571L42.8916 37.9195L46.7932 34.0411C47.5001 33.3388 47.7494 32.3085 47.4443 31.352C47.1392 30.3946 46.3434 29.711 45.3671 29.5661L40.0081 28.791L37.597 23.8094C37.1603 22.9071 36.2764 22.3462 35.2905 22.3462C34.3047 22.3462 33.4199 22.9062 32.9832 23.8094L30.6044 28.7679L25.2139 29.567C24.2377 29.7119 23.4418 30.3955 23.1367 31.3529C22.8317 32.3103 23.0818 33.3406 23.7879 34.0419L27.6764 37.8813Z" fill="url(#paint3_linear_41_192)"/>
<defs>
<linearGradient id="paint0_linear_41_192" x1="15.015" y1="59.7305" x2="15.015" y2="87.1462" gradientUnits="userSpaceOnUse">
<stop stop-color="#16A7A2"/>
<stop offset="1" stop-color="#235D5A"/>
</linearGradient>
<linearGradient id="paint1_linear_41_192" x1="55.5661" y1="59.7295" x2="55.5661" y2="87.1443" gradientUnits="userSpaceOnUse">
<stop stop-color="#16A7A2"/>
<stop offset="1" stop-color="#235D5A"/>
</linearGradient>
<linearGradient id="paint2_linear_41_192" x1="35.2918" y1="0" x2="35.2918" y2="70.275" gradientUnits="userSpaceOnUse">
<stop stop-color="#16A7A2"/>
<stop offset="1" stop-color="#235D5A"/>
</linearGradient>
<linearGradient id="paint3_linear_41_192" x1="35.2906" y1="22.3462" x2="35.2906" y2="46.4276" gradientUnits="userSpaceOnUse">
<stop stop-color="#16A7A2"/>
<stop offset="1" stop-color="#235D5A"/>
</linearGradient>
</defs>
</svg>
