<svg width="105" height="98" viewBox="0 0 105 98" fill="none" xmlns="http://www.w3.org/2000/svg">
<path fill-rule="evenodd" clip-rule="evenodd" d="M65.3655 4.26598L52.238 0L39.1082 4.26598V20.0462C40.7699 25.93 44.9276 28.3177 49.7328 31.0787C50.5556 31.5512 51.3991 32.0352 52.238 32.5445C53.0769 32.0352 53.9205 31.5512 54.7409 31.0787C59.5485 28.3177 63.7062 25.93 65.3655 20.0462V4.26598ZM22.9132 80.4682L26.9787 74.6281C27.8706 73.3467 27.5525 71.579 26.2711 70.6894C25.6535 70.2607 24.9021 70.0971 24.1554 70.2307C23.4087 70.3644 22.7588 70.7793 22.3301 71.3946L18.2669 77.2347C17.8383 77.8523 17.6746 78.6037 17.8083 79.3504C17.942 80.0971 18.3568 80.7447 18.9722 81.1757C19.5898 81.6044 20.3412 81.7657 21.0879 81.632C21.8369 81.4984 22.4845 81.0858 22.9132 80.4682ZM27.0063 89.3412C26.1144 90.6226 24.3467 90.9384 23.0653 90.0465C21.7839 89.1568 21.4682 87.3891 22.3578 86.1077L29.2488 76.2091V76.2068L32.072 72.1506C32.6205 71.36 33.5032 70.936 34.3998 70.936C34.9575 70.936 35.5221 71.1019 36.013 71.443C36.6307 71.8717 37.0432 72.5193 37.1769 73.2683C37.3106 74.015 37.1493 74.7664 36.7206 75.384L27.0063 89.3412ZM36.1144 91.0075L40.3505 84.9185C40.3505 84.9162 40.3528 84.9162 40.3551 84.9139L41.4475 83.3444C42.3394 82.063 42.0214 80.2953 40.74 79.4034C39.4585 78.5138 37.6909 78.8295 36.7989 80.1109L31.4682 87.7717C30.5763 89.0531 30.8943 90.8208 32.1757 91.7127C32.7934 92.1414 33.5447 92.305 34.2914 92.1714C35.0359 92.0377 35.6835 91.6229 36.1144 91.0075ZM47.2668 89.7307L44.1255 94.2456C43.2336 95.527 41.4659 95.845 40.1868 94.9531C38.9054 94.0612 38.5897 92.2935 39.4793 91.0121L42.6206 86.4972C43.5125 85.2158 45.2802 84.9001 46.5616 85.792C47.8407 86.6839 48.1587 88.4516 47.2668 89.7307ZM76.8636 39.8089L95.7782 67.29L104.474 61.3047L85.5592 33.8236L76.8636 39.8089ZM8.69558 66.965L27.6102 39.4839L18.9146 33.4986L0 60.982L8.69558 66.965ZM30.3066 57.018C29.9955 57.4743 29.8872 58.0228 30.0024 58.5598C30.1177 59.0991 30.4426 59.5554 30.9151 59.8435C37.2253 63.6739 43.5309 62.2404 49.6614 55.5868C49.7213 55.5222 49.7605 55.5061 49.8481 55.5107L56.1906 55.9394L82.4963 72.5032C84.0404 73.4758 84.506 75.5246 83.5334 77.0688C82.5608 78.6129 80.5119 79.0784 78.9678 78.1059L62.9249 68.0044C62.2796 67.5988 61.4245 67.7924 61.0189 68.4377C60.611 69.0853 60.8069 69.938 61.4522 70.346L76.3405 79.7192C76.3405 79.7215 76.3428 79.7214 76.3428 79.7214C77.0872 80.1893 77.6034 80.9245 77.8016 81.7911C77.9975 82.6553 77.8477 83.5426 77.3799 84.287C76.912 85.0292 76.1768 85.5477 75.3103 85.7459C74.4437 85.9418 73.5587 85.792 72.8143 85.3242L70.0671 83.5956C70.0648 83.5933 70.0625 83.5933 70.0625 83.591H70.0602L58.0804 76.0455C57.4351 75.6399 56.5801 75.8335 56.1744 76.4788C55.7665 77.1264 55.9624 77.9791 56.6077 78.387L68.5921 85.9326C69.3365 86.4004 69.8528 87.1356 70.051 87.9999C70.2469 88.8665 70.0971 89.7514 69.6292 90.4959C69.1567 91.2472 68.4146 91.7681 67.5412 91.964C66.6792 92.1553 65.8034 92.0054 65.0728 91.5376L54.9968 85.1052C54.3537 84.695 53.4987 84.8839 53.0862 85.527C52.6759 86.1723 52.8649 87.0273 53.5079 87.4375L59.9657 91.5606L59.9518 91.5814C61.496 92.5539 61.9615 94.6028 60.9889 96.147C60.0164 97.6911 57.9675 98.1566 56.4234 97.1841L48.7925 92.3811L49.5369 91.3117C50.3874 90.0879 50.7123 88.6037 50.4473 87.1287C50.1823 85.6537 49.3641 84.3723 48.1403 83.5219C47.0825 82.7844 45.8564 82.4663 44.6579 82.5309C44.9483 80.5004 44.1117 78.3824 42.3187 77.1333C41.4636 76.5387 40.4795 76.2022 39.4609 76.1446C40.5994 73.7224 39.8619 70.7516 37.5918 69.1729C35.0589 67.4098 31.565 68.0367 29.8019 70.5695L29.7305 70.6733C29.3202 69.7744 28.6818 68.9954 27.8521 68.4193C26.6284 67.5665 25.1441 67.2439 23.6691 67.5089C22.1941 67.7739 20.915 68.5921 20.0623 69.8159L18.3776 72.2358C16.0014 70.0164 14.2522 67.797 13.0607 65.5038L27.6009 44.3768C30.5164 46.315 34.2799 47.1263 37.4627 47.4397C36.6146 48.0965 35.907 48.8502 35.3009 49.7375L30.3066 57.018ZM77.3983 45.4623L91.2495 65.5845C89.1338 67.8754 86.3889 69.4103 83.5334 69.8897L57.3683 53.4134C57.1747 53.2913 56.9534 53.2198 56.7253 53.2037L50.0348 52.752C49.1106 52.6898 48.2555 53.0309 47.6264 53.7131C42.6851 59.0784 37.9144 60.4473 33.0653 57.8845L37.5802 51.3C38.5782 49.8458 39.9287 48.8778 42.0974 48.0689C47.0041 46.2389 51.8509 44.8308 57.8085 43.5033C60.0071 43.0124 61.7149 43.1599 63.3466 43.9781C67.3637 45.9923 72.0883 46.4879 77.3983 45.4623ZM44.575 15.2985L49.4102 20.1361L59.9011 9.64512C60.4404 9.10582 61.3162 9.10582 61.8555 9.64512C62.3948 10.1867 62.3948 11.0625 61.8555 11.6018L50.3874 23.0699C50.1269 23.3281 49.7766 23.4732 49.4102 23.4732C49.0437 23.4732 48.6911 23.3281 48.433 23.0699L42.6183 17.2552C42.079 16.7159 42.079 15.8401 42.6183 15.2985C43.1576 14.7592 44.0334 14.7592 44.575 15.2985Z" fill="url(#paint0_linear_44_196)"/>
<defs>
<linearGradient id="paint0_linear_44_196" x1="52.2369" y1="0" x2="52.2369" y2="97.6922" gradientUnits="userSpaceOnUse">
<stop stop-color="#16A5A0"/>
<stop offset="1" stop-color="#235E5B"/>
</linearGradient>
</defs>
</svg>
