<svg width="100" height="80" viewBox="0 0 100 80" fill="none" xmlns="http://www.w3.org/2000/svg">
<path fill-rule="evenodd" clip-rule="evenodd" d="M66.2745 79.1926C47.6817 79.1926 32.549 64.0369 32.549 45.4441C32.549 28.2353 45.5133 14.0023 62.1915 11.9723V7.65859H59.2849C58.6621 7.65859 58.1315 7.12803 58.1315 6.48212V5.39792C58.1315 2.42215 60.5536 0 63.5063 0H68.9965C71.9723 0 74.3945 2.42215 74.3945 5.39792V6.48212C74.4175 7.12803 73.887 7.65859 73.2411 7.65859H70.3345V11.9723C76.263 12.6874 81.7301 14.9481 86.3206 18.3622L90.0577 14.6251C90.496 14.1638 91.2572 14.1638 91.7186 14.6251L94.5098 17.4164C94.7174 17.624 94.8558 17.9469 94.8558 18.2238C94.8558 18.5236 94.7405 18.8235 94.5098 19.0542L91.0035 22.5606C96.5859 28.5813 100 36.6321 100 45.4441C100 64.06 84.8674 79.1926 66.2745 79.1926ZM36.1476 70.1961H7.84314C7.19723 70.1961 6.68973 69.6655 6.68973 69.0196C6.68973 68.3737 7.19723 67.8662 7.84314 67.8662H36.1476C36.7935 67.8662 37.3241 68.3737 37.3241 69.0196C37.3241 69.6655 36.7935 70.1961 36.1476 70.1961ZM30.2422 57.624H1.93772C1.29181 57.624 0.761246 57.0934 0.761246 56.4475C0.761246 55.8016 1.29181 55.271 1.93772 55.271H30.2422C30.8881 55.271 31.3956 55.8016 31.3956 56.4475C31.3956 57.0934 30.8881 57.624 30.2422 57.624ZM29.481 46.8281H6.57439C5.92849 46.8281 5.42099 46.2976 5.42099 45.6517C5.42099 45.0058 5.92849 44.4752 6.57439 44.4752H29.481C30.1269 44.4752 30.6344 45.0058 30.6344 45.6517C30.6344 46.2976 30.1269 46.8281 29.481 46.8281ZM29.481 35.3864H1.17647C0.530565 35.3864 0 34.8789 0 34.233C0 33.5871 0.530565 33.0565 1.17647 33.0565H29.481C30.1269 33.0565 30.6344 33.5871 30.6344 34.233C30.6344 34.8789 30.1269 35.3864 29.481 35.3864ZM36.1476 23.9677H7.84314C7.19723 23.9677 6.68973 23.4371 6.68973 22.7912C6.68973 22.1453 7.19723 21.6378 7.84314 21.6378H36.1476C36.7935 21.6378 37.3241 22.1453 37.3241 22.7912C37.3241 23.4371 36.7935 23.9677 36.1476 23.9677ZM66.2745 26.09C65.6286 26.09 65.098 25.5825 65.098 24.9366V20.5536C59.1003 20.8304 53.6794 23.2295 49.504 27.0127L52.5952 30.1038C53.0565 30.5421 53.0565 31.3033 52.5952 31.7647C52.3414 31.9954 52.0415 32.1107 51.7647 32.1107C51.4648 32.1107 51.1419 31.9954 50.9343 31.7647L47.8431 28.6736C44.06 32.8489 41.6609 38.293 41.3841 44.2907H45.7439C46.3898 44.2907 46.9204 44.8212 46.9204 45.4441C46.9204 46.09 46.3898 46.6205 45.7439 46.6205H41.3841C41.6609 52.6182 44.06 58.0623 47.8431 62.2145L50.9343 59.1234C51.3956 58.6851 52.1338 58.6851 52.5952 59.1234C53.0565 59.5848 53.0565 60.3229 52.5952 60.7843L49.504 63.8754C53.6563 67.6586 59.1003 70.0577 65.098 70.3575V65.9977C65.098 65.3518 65.6286 64.8212 66.2745 64.8212C66.9204 64.8212 67.451 65.3518 67.451 65.9977V70.3575C73.4256 70.0577 78.8927 67.6586 83.045 63.8754L79.9539 60.7843C79.5156 60.346 79.5156 59.5848 79.9539 59.1234C80.4152 58.6851 81.1534 58.6851 81.6148 59.1234L84.7059 62.2145C88.489 58.0392 90.8881 52.6182 91.1649 46.6205H86.8051C86.1592 46.6205 85.6286 46.09 85.6286 45.4441C85.6286 44.8212 86.1592 44.2907 86.8051 44.2907H91.1649C90.8881 38.293 88.489 32.8489 84.6828 28.6967L81.6148 31.7647C81.3841 31.9954 81.0842 32.1107 80.7843 32.1107C80.4844 32.1107 80.1845 31.9954 79.9539 31.7647C79.5156 31.3033 79.5156 30.5652 79.9539 30.1038L83.0219 27.0358C78.8697 23.2526 73.4256 20.8304 67.451 20.5536V24.9366C67.451 25.5825 66.9204 26.09 66.2745 26.09ZM66.0438 18.2238C66.113 18.2007 66.1822 18.2007 66.2745 18.2007C66.3437 18.2007 66.4129 18.2007 66.5052 18.2238C73.8178 18.2699 80.4383 21.2226 85.3056 25.9746C85.3979 26.0208 85.4902 26.09 85.5594 26.1592C85.6517 26.2284 85.6978 26.3206 85.767 26.4129C90.5652 31.3264 93.5409 38.0392 93.5409 45.4441C93.5409 52.895 90.5421 59.677 85.6747 64.5905C85.6517 64.6367 85.6055 64.6828 85.5594 64.7289C85.5133 64.7751 85.4902 64.7981 85.4441 64.8443C80.5075 69.7116 73.7255 72.7336 66.2745 72.7336C51.2341 72.7336 39.0081 60.5075 39.0081 45.4671V45.4441V45.421C39.0081 38.0161 42.0069 31.2803 46.8281 26.3898C46.8743 26.2976 46.9204 26.2284 46.9896 26.1592C47.0588 26.09 47.1511 26.0208 47.2203 25.9746C52.0877 21.2226 58.7313 18.2699 66.0438 18.2238ZM65.098 40.7382V31.6494C65.098 31.0035 65.6286 30.4729 66.2745 30.4729C66.9204 30.4729 67.451 31.0035 67.451 31.6494V40.7382C69.5502 41.2687 71.1419 43.1834 71.1419 45.4441C71.1419 46.2284 70.9573 46.9435 70.6344 47.5894L78.1546 55.3864C78.6159 55.8708 78.5928 56.609 78.1315 57.0473C77.9008 57.2549 77.6009 57.3702 77.301 57.3702C77.0012 57.3702 76.7013 57.2549 76.4706 57.0242L69.1119 49.3887C68.3276 49.9654 67.3356 50.3114 66.2745 50.3114C63.5986 50.3114 61.4072 48.1199 61.4072 45.4441C61.4072 43.1834 62.9758 41.2687 65.098 40.7382Z" fill="url(#paint0_linear_44_200)"/>
<defs>
<linearGradient id="paint0_linear_44_200" x1="67" y1="95.5963" x2="66" y2="-17.4037" gradientUnits="userSpaceOnUse">
<stop stop-color="#22625E"/>
<stop offset="1" stop-color="#16A7A2"/>
</linearGradient>
</defs>
</svg>
