<svg width="84" height="84" viewBox="0 0 84 84" fill="none" xmlns="http://www.w3.org/2000/svg">
<g clip-path="url(#clip0_46_223)">
<path d="M66.1491 4.43408C64.0592 2.46718 61.3847 1.52271 58.6892 1.52271C55.6549 1.52271 52.5906 2.71904 50.3059 5.00676L49.3254 5.98721L48.345 5.00376C46.0603 2.71904 42.996 1.52271 39.9617 1.52271C37.2662 1.52271 34.5917 2.46718 32.5018 4.43408C27.9054 8.76067 27.8244 15.9986 32.256 20.4302L49.3254 37.4996L66.3949 20.4302C70.8264 15.9986 70.7455 8.76067 66.1491 4.43408Z" fill="url(#paint0_linear_46_223)"/>
<path d="M82.9037 46.1918C80.2802 44.4138 77.1889 44.9175 74.4515 46.4976C71.714 48.0777 55.9968 61.5162 55.9968 61.5162L40.5254 61.5192C39.8058 61.5192 39.0262 60.7097 39.0262 59.9931C39.0262 59.1505 39.7608 58.4939 40.5254 58.4939H49.9911C53.3043 58.4939 57.0132 56.3351 57.0132 52.4972C57.0132 48.4195 53.3043 46.5006 49.9911 46.5006C44.2433 46.5006 43.1249 46.5246 43.1249 46.5246C40.8222 46.5246 38.4865 46.3867 36.6875 45.4242C34.2889 44.1949 31.5244 43.4993 28.5741 43.4993C23.6208 43.4993 19.1863 45.4752 16.146 48.5904L0 64.4876L17.99 82.4775L23.9866 76.4809H54.3507C57.373 76.4809 60.2904 75.3715 62.5481 73.3656L83.1076 50.3025C84.3639 49.1871 84.292 47.1362 82.9037 46.1918Z" fill="url(#paint1_linear_46_223)"/>
</g>
<defs>
<linearGradient id="paint0_linear_46_223" x1="49.3254" y1="1.52271" x2="49.3254" y2="37.4996" gradientUnits="userSpaceOnUse">
<stop stop-color="#16A7A2"/>
<stop offset="1" stop-color="#206D69"/>
</linearGradient>
<linearGradient id="paint1_linear_46_223" x1="42" y1="43.4993" x2="42" y2="82.4775" gradientUnits="userSpaceOnUse">
<stop stop-color="#16A7A2"/>
<stop offset="1" stop-color="#206D69"/>
</linearGradient>
<clipPath id="clip0_46_223">
<rect width="84" height="84" fill="white"/>
</clipPath>
</defs>
</svg>
